<svg xmlns="http://www.w3.org/2000/svg" xmlns:xlink="http://www.w3.org/1999/xlink" xmlns:lucid="lucid" width="2081" height="1378.67"><g transform="translate(560.5 0)" lucid:page-tab-id="0_0"><path d="M-1000 0h3000v1500h-3000z" fill="#fff"/><path d="M794.13 756a6 6 0 0 1 6-6h219.68a6 6 0 0 1 6 6v200.2a6 6 0 0 1-6 6H800.14a6 6 0 0 1-6-6z" stroke="#3a414a" fill="#0b141f"/><use xlink:href="#a" transform="matrix(1,0,0,1,799.125903130679,755) translate(51.888888888888886 91.11458333333334)"/><use xlink:href="#b" transform="matrix(1,0,0,1,799.125903130679,755) translate(143.51851851851853 91.11458333333334)"/><use xlink:href="#c" transform="matrix(1,0,0,1,799.125903130679,755) translate(111 123.11458333333334)"/><path d="M1254 221a6 6 0 0 1 6-6h219.7a6 6 0 0 1 6 6v200.2a6 6 0 0 1-6 6H1260a6 6 0 0 1-6-6z" stroke="#3a414a" fill="#0b141f"/><use xlink:href="#a" transform="matrix(1,0,0,1,1259,220) translate(51.888888888888886 91.11458333333334)"/><use xlink:href="#b" transform="matrix(1,0,0,1,1259,220) translate(143.51851851851853 91.11458333333334)"/><use xlink:href="#c" transform="matrix(1,0,0,1,1259,220) translate(111 123.11458333333334)"/><path d="M1034.8 920.37V760.93c0-7.82-5.7-20.93-12.9-20.93H798.1c-7.2 0-14.1 13.1-14.1 20.93v159.44c-25.2 33.13-24 33.13-24 33.13 0 9.43 6.9 16.56 15.9 16.56h268.2c9 0 15.9-7.82 15.9-16.56l-25.2-33.13zm-104.1 35.9h-46.8c-2.4 0-4.8-1.4-4.8-2.77l5.4-10.82c0-1.38 1.8-2.3 4.2-2.3h37.2c1.8 0 3.6.92 3.6 2.3l6 10.82c0 2.07-2.4 2.76-4.8 2.76zm93-36.82H795.1V762.32c0-3.7 3-8.75 6.3-8.75H1018c3.3 0 5.7 5.06 5.7 8.75v157.13z" stroke="#000" stroke-opacity="0" fill="#00c2a8"/><use xlink:href="#d" transform="matrix(1,0,0,1,730,979.0599999999998) translate(99.93271604938278 26.84444444444443)"/><use xlink:href="#e" transform="matrix(1,0,0,1,730,979.0599999999998) translate(189.320987654321 26.84444444444443)"/><path d="M-280 1026.12a6 6 0 0 1 6-6h988a6 6 0 0 1 6 6V1254a6 6 0 0 1-6 6h-988a6 6 0 0 1-6-6z" stroke="#3a414a" fill="#fff"/><use xlink:href="#f" transform="matrix(1,0,0,1,-274,1026.12) translate(0 105.11111111111111)"/><use xlink:href="#g" transform="matrix(1,0,0,1,-274,1026.12) translate(0 131.7777777777778)"/><path d="M-39.9 1258.5l-.1-56.5" stroke="#3a414a" stroke-width="4" fill="none"/><path d="M-37.93 1260.5h-3.95v-2.05h3.95zM-38.02 1202.05h-3.95V1200h3.95z" stroke="#3a414a" stroke-width=".05" fill="#3a414a"/><path d="M-437 476c-67.93 0-123-60.9-123-136 0-60.1 33.3-110.78 85-129.34C-478 34-273 0-191 68-150-34 55 0 55 102c123-34 246 102 164 272 82 136 0 306-164 238-41 88.4-205 88.4-246 0-82 68-246 34-246-136z" stroke="#3a414a" fill="#fff"/><path d="M-40.34 1083.17c-1.14.1-2.05.34-2.96.8l-39.44 19.43c-2.16 1.02-3.64 2.84-4.1 5.23l-9.77 43.76c-.47 2.04-.13 4.08 1 5.9.13.23.24.34.47.57l27.28 35c1.48 1.94 3.52 2.97 5.9 2.97h43.9c2.38 0 4.42-1.03 5.9-2.96l27.28-35c1.48-1.94 2.05-4.22 1.48-6.6l-9.77-43.65c-.45-2.4-1.93-4.2-4.1-5.23l-39.43-19.44c-1.25-.57-2.4-.9-3.64-.8z" stroke="#000" stroke-opacity="0" stroke-width="0" fill="#ced4db"/><path d="M-40.36 1080c-1.2.12-2.16.36-3.12.84l-41.64 20.52c-2.28 1.08-3.84 3-4.32 5.52l-10.32 46.2c-.48 2.16-.12 4.32 1.08 6.24.12.24.24.36.48.6l28.8 36.96c1.56 2.04 3.72 3.12 6.24 3.12h46.32c2.52 0 4.68-1.08 6.24-3.12l28.8-36.96c1.56-2.04 2.16-4.44 1.56-6.84l-10.32-46.2c-.48-2.52-2.04-4.44-4.32-5.52l-41.64-20.52c-1.32-.6-2.52-.96-3.84-.84zm0 3.12c1.32 0 2.4.24 3.6.84l39.6 19.44c2.04 1.08 3.48 2.88 4.08 5.28l9.72 43.68c.48 2.4 0 4.56-1.44 6.48l-27.36 35.04c-1.44 1.92-3.48 3-5.88 3h-43.92c-2.4 0-4.44-1.08-5.88-3l-27.36-35.04c-.12-.12-.24-.36-.36-.6-1.2-1.8-1.56-3.72-1.08-5.88l9.72-43.68c.6-2.4 1.92-4.2 4.08-5.28l39.6-19.44c.96-.48 1.8-.72 2.88-.84z" stroke="#000" stroke-opacity="0" stroke-width="0" fill="#fff"/><path d="M-11.66 1138.4h-4.6v-12.63c0-3.53-2.76-6.38-6.18-6.38l-12.26-.02v-4.72c0-4.4-3.48-7.9-7.67-7.9-4.26 0-7.68 3.5-7.68 7.9v4.72h-12.32c-3.36 0-6.13 2.86-6.13 6.4v12.03h4.58c4.58 0 8.32 3.8 8.32 8.52s-3.74 8.58-8.32 8.58h-4.58v12.03c0 3.46 2.77 6.32 6.13 6.32h11.67v-4.72c0-4.72 3.75-8.58 8.33-8.58s8.25 3.86 8.25 8.58v4.72h11.68c3.42 0 6.2-2.86 6.2-6.32v-12.7h4.57c4.26 0 7.68-3.52 7.68-7.9 0-4.33-3.4-7.92-7.66-7.92z" stroke="#000" stroke-opacity="0" stroke-width="1.74" fill="#fff"/><path d="M119.66 1083.17c-1.14.1-2.05.34-2.96.8l-39.44 19.43c-2.16 1.02-3.64 2.84-4.1 5.23l-9.77 43.76c-.47 2.04-.13 4.08 1 5.9.13.23.24.34.47.57l27.28 35c1.48 1.94 3.52 2.97 5.9 2.97h43.9c2.38 0 4.42-1.03 5.9-2.96l27.28-35c1.48-1.94 2.05-4.22 1.48-6.6l-9.77-43.65c-.45-2.4-1.93-4.2-4.1-5.23l-39.43-19.44c-1.25-.57-2.4-.9-3.64-.8z" stroke="#000" stroke-opacity="0" stroke-width="0" fill="#ced4db"/><path d="M119.64 1080c-1.2.12-2.16.36-3.12.84l-41.64 20.52c-2.28 1.08-3.84 3-4.32 5.52l-10.32 46.2c-.48 2.16-.12 4.32 1.08 6.24.12.24.24.36.48.6l28.8 36.96c1.56 2.04 3.72 3.12 6.24 3.12h46.32c2.52 0 4.68-1.08 6.24-3.12l28.8-36.96c1.56-2.04 2.16-4.44 1.56-6.84l-10.32-46.2c-.48-2.52-2.04-4.44-4.32-5.52l-41.64-20.52c-1.32-.6-2.52-.96-3.84-.84zm0 3.12c1.32 0 2.4.24 3.6.84l39.6 19.44c2.04 1.08 3.48 2.88 4.08 5.28l9.72 43.68c.48 2.4 0 4.56-1.44 6.48l-27.36 35.04c-1.44 1.92-3.48 3-5.88 3H98.04c-2.4 0-4.44-1.08-5.88-3l-27.36-35.04c-.12-.12-.24-.36-.36-.6-1.2-1.8-1.56-3.72-1.08-5.88l9.72-43.68c.6-2.4 1.92-4.2 4.08-5.28l39.6-19.44c.96-.48 1.8-.72 2.88-.84z" stroke="#000" stroke-opacity="0" stroke-width="0" fill="#fff"/><path d="M148.34 1138.4h-4.6v-12.63c0-3.53-2.76-6.38-6.18-6.38l-12.26-.02v-4.72c0-4.4-3.48-7.9-7.67-7.9-4.26 0-7.68 3.5-7.68 7.9v4.72H97.63c-3.36 0-6.13 2.86-6.13 6.4v12.03h4.58c4.58 0 8.32 3.8 8.32 8.52s-3.74 8.58-8.32 8.58H91.5v12.03c0 3.46 2.77 6.32 6.13 6.32h11.67v-4.72c0-4.72 3.75-8.58 8.33-8.58s8.25 3.86 8.25 8.58v4.72h11.68c3.42 0 6.2-2.86 6.2-6.32v-12.7h4.58c4.25 0 7.67-3.52 7.67-7.9 0-4.33-3.4-7.92-7.66-7.92z" stroke="#000" stroke-opacity="0" stroke-width="1.74" fill="#fff"/><path d="M279.66 1083.17c-1.14.1-2.05.34-2.96.8l-39.44 19.43c-2.16 1.02-3.64 2.84-4.1 5.23l-9.77 43.76c-.47 2.04-.13 4.08 1 5.9.13.23.24.34.47.57l27.28 35c1.48 1.94 3.52 2.97 5.9 2.97h43.9c2.38 0 4.42-1.03 5.9-2.96l27.28-35c1.48-1.94 2.05-4.22 1.48-6.6l-9.77-43.65c-.45-2.4-1.93-4.2-4.1-5.23l-39.43-19.44c-1.25-.57-2.4-.9-3.64-.8z" stroke="#000" stroke-opacity="0" stroke-width="0" fill="#ff80df"/><path d="M279.64 1080c-1.2.12-2.16.36-3.12.84l-41.64 20.52c-2.28 1.08-3.84 3-4.32 5.52l-10.32 46.2c-.48 2.16-.12 4.32 1.08 6.24.12.24.24.36.48.6l28.8 36.96c1.56 2.04 3.72 3.12 6.24 3.12h46.32c2.52 0 4.68-1.08 6.24-3.12l28.8-36.96c1.56-2.04 2.16-4.44 1.56-6.84l-10.32-46.2c-.48-2.52-2.04-4.44-4.32-5.52l-41.64-20.52c-1.32-.6-2.52-.96-3.84-.84zm0 3.12c1.32 0 2.4.24 3.6.84l39.6 19.44c2.04 1.08 3.48 2.88 4.08 5.28l9.72 43.68c.48 2.4 0 4.56-1.44 6.48l-27.36 35.04c-1.44 1.92-3.48 3-5.88 3h-43.92c-2.4 0-4.44-1.08-5.88-3l-27.36-35.04c-.12-.12-.24-.36-.36-.6-1.2-1.8-1.56-3.72-1.08-5.88l9.72-43.68c.6-2.4 1.92-4.2 4.08-5.28l39.6-19.44c.96-.48 1.8-.72 2.88-.84z" stroke="#000" stroke-opacity="0" stroke-width="0" fill="#fff"/><path d="M308.33 1138.4h-4.58v-12.63c0-3.53-2.77-6.38-6.2-6.38l-12.25-.02v-4.72c0-4.4-3.48-7.9-7.67-7.9-4.26 0-7.68 3.5-7.68 7.9v4.72h-12.32c-3.36 0-6.13 2.86-6.13 6.4v12.03h4.58c4.58 0 8.32 3.8 8.32 8.52s-3.74 8.58-8.32 8.58h-4.58v12.03c0 3.46 2.77 6.32 6.13 6.32h11.67v-4.72c0-4.72 3.75-8.58 8.33-8.58s8.25 3.86 8.25 8.58v4.72h11.68c3.42 0 6.2-2.86 6.2-6.32v-12.7h4.57c4.26 0 7.68-3.52 7.68-7.9 0-4.33-3.4-7.92-7.67-7.92z" stroke="#000" stroke-opacity="0" stroke-width="1.74" fill="#fff"/><path d="M519.66 1083.17c-1.14.1-2.05.34-2.96.8l-39.44 19.43c-2.16 1.02-3.64 2.84-4.1 5.23l-9.77 43.76c-.47 2.04-.13 4.08 1 5.9.13.23.24.34.47.57l27.28 35c1.48 1.94 3.52 2.97 5.9 2.97h43.9c2.38 0 4.42-1.03 5.9-2.96l27.28-35c1.48-1.94 2.05-4.22 1.48-6.6l-9.77-43.65c-.45-2.4-1.93-4.2-4.1-5.23l-39.43-19.44c-1.25-.57-2.4-.9-3.64-.8z" stroke="#000" stroke-opacity="0" stroke-width="0" fill="#6db1ff"/><path d="M519.64 1080c-1.2.12-2.16.36-3.12.84l-41.64 20.52c-2.28 1.08-3.84 3-4.32 5.52l-10.32 46.2c-.48 2.16-.12 4.32 1.08 6.24.12.24.24.36.48.6l28.8 36.96c1.56 2.04 3.72 3.12 6.24 3.12h46.32c2.52 0 4.68-1.08 6.24-3.12l28.8-36.96c1.56-2.04 2.16-4.44 1.56-6.84l-10.32-46.2c-.48-2.52-2.04-4.44-4.32-5.52l-41.64-20.52c-1.32-.6-2.52-.96-3.84-.84zm0 3.12c1.32 0 2.4.24 3.6.84l39.6 19.44c2.04 1.08 3.48 2.88 4.08 5.28l9.72 43.68c.48 2.4 0 4.56-1.44 6.48l-27.36 35.04c-1.44 1.92-3.48 3-5.88 3h-43.92c-2.4 0-4.44-1.08-5.88-3l-27.36-35.04c-.12-.12-.24-.36-.36-.6-1.2-1.8-1.56-3.72-1.08-5.88l9.72-43.68c.6-2.4 1.92-4.2 4.08-5.28l39.6-19.44c.96-.48 1.8-.72 2.88-.84z" stroke="#000" stroke-opacity="0" stroke-width="0" fill="#fff"/><path d="M548.34 1138.4h-4.6v-12.63c0-3.53-2.76-6.38-6.18-6.38l-12.26-.02v-4.72c0-4.4-3.48-7.9-7.67-7.9-4.26 0-7.68 3.5-7.68 7.9v4.72h-12.32c-3.36 0-6.13 2.86-6.13 6.4v12.03h4.58c4.58 0 8.32 3.8 8.32 8.52s-3.74 8.58-8.32 8.58h-4.58v12.03c0 3.46 2.77 6.32 6.13 6.32h11.67v-4.72c0-4.72 3.74-8.58 8.33-8.58 4.58 0 8.25 3.86 8.25 8.58v4.72h11.68c3.42 0 6.2-2.86 6.2-6.32v-12.7h4.58c4.25 0 7.67-3.52 7.67-7.9 0-4.33-3.4-7.92-7.66-7.92z" stroke="#000" stroke-opacity="0" stroke-width="1.74" fill="#fff"/><path d="M200 854.5h149.85v46.56H200z" fill="#29aae1"/><path d="M207.2 906.34h135.45v3.6H207.2z" fill="#2188b4"/><path d="M207.05 872.26H221v5.88h-13.95zm3.45 3.96h6.6v7.2h-6.6zm18-3.96h13.95v5.88H228.5zm3.45 3.96h6.6v7.2h-6.6zm19.2-3.96h13.95v5.88h-13.95zm3.45 3.96h6.6v7.2h-6.6zm18.6-3.96h13.95v5.88H273.2zm3.45 3.96h6.6v7.2h-6.6z" fill="#fff"/><path d="M334.85 824.02c5.7 1.08 5.7 1.08 4.65 6.6l-5.4 27.48h-6.75c-2.85 0-2.85 0-4.5-2.04l5.25-27.6c1.2-5.52 1.2-5.52 6.75-4.44z" fill="#29aae1"/><path d="M340.85 793.54c3.45.72 3.45.72 2.85 4.08L338 826.3c-.6 3.36-.6 3.36-4.05 2.76-3.6-.72-3.6-.72-2.85-4.08l5.55-28.68c.6-3.36.6-3.36 4.2-2.76z" fill="#29aae1"/><path d="M304.55 858.1h40.2v37.92h-40.2z" fill="#fff"/><path d="M305.9 859.42h37.35v35.16H305.9z" fill="#54bbe7"/><path d="M323.9 861.1l-4.5 4.68h2.4l.15 6.48h4.65l-.45-6.48h2.4l-4.65-4.68zM324.65 891.82l4.5-4.44-2.25-.12-.15-6.48-4.65-.12.45 6.48H320l4.65 4.68zM326.3 876.82l4.5 4.68.15-2.28h6.45l.3-4.56-6.6.24v-1.68l.15-.72-4.95 4.32zM322.4 876.82l-4.5-4.56-.15 2.28-6.45-.12-.3 4.56 6.6-.24v1.8l-.15.72 4.95-4.44z" fill="#fff"/><path d="M214.7 821.62c5.55-1.08 5.55-1.08 6.6 4.44l5.4 27.48c1.2 5.64 1.2 5.64-4.5 6.72s-5.7 1.08-6.75-4.56l-5.4-27.48c-1.05-5.52-1.05-5.52 4.65-6.6z" fill="#29aae1"/><path d="M208.7 791.14c3.45-.72 3.45-.72 4.2 2.76l5.55 28.68c.6 3.36.6 3.36-2.85 4.08-3.45.6-3.45.6-4.05-2.76l-5.7-28.68c-.6-3.48-.6-3.48 2.85-4.08zM760 324.44h149.85V371H760z" fill="#29aae1"/><path d="M767.2 376.28h135.45v3.6H767.2z" fill="#2188b4"/><path d="M767.05 342.2H781v5.88h-13.95zm3.45 3.96h6.6v7.2h-6.6zm18-3.96h13.95v5.88H788.5zm3.45 3.96h6.6v7.2h-6.6zm19.2-3.96h13.95v5.88h-13.95zm3.45 3.96h6.6v7.2h-6.6zm18.6-3.96h13.95v5.88H833.2zm3.45 3.96h6.6v7.2h-6.6z" fill="#fff"/><path d="M894.85 293.96c5.7 1.08 5.7 1.08 4.65 6.6l-5.4 27.48h-6.75c-2.85 0-2.85 0-4.5-2.04l5.25-27.6c1.2-5.52 1.2-5.52 6.75-4.44z" fill="#29aae1"/><path d="M900.85 263.48c3.45.72 3.45.72 2.85 4.08l-5.7 28.68c-.6 3.36-.6 3.36-4.05 2.76-3.6-.72-3.6-.72-2.85-4.08l5.55-28.68c.6-3.36.6-3.36 4.2-2.76z" fill="#29aae1"/><path d="M864.55 328.04h40.2v37.92h-40.2z" fill="#fff"/><path d="M865.9 329.36h37.35v35.16H865.9z" fill="#54bbe7"/><path d="M883.9 331.04l-4.5 4.68h2.4l.15 6.48h4.65l-.45-6.48h2.4l-4.65-4.68zM884.65 361.76l4.5-4.44-2.25-.12-.15-6.48-4.65-.12.45 6.48H880l4.65 4.68zM886.3 346.76l4.5 4.68.15-2.28h6.45l.3-4.56-6.6.24v-1.68l.15-.72-4.95 4.32zM882.4 346.76l-4.5-4.56-.15 2.28-6.45-.12-.3 4.56 6.6-.24v1.8l-.15.72 4.95-4.44z" fill="#fff"/><path d="M774.7 291.56c5.55-1.08 5.55-1.08 6.6 4.44l5.4 27.48c1.2 5.64 1.2 5.64-4.5 6.72s-5.7 1.08-6.75-4.56l-5.4-27.48c-1.05-5.52-1.05-5.52 4.65-6.6z" fill="#29aae1"/><path d="M768.7 261.08c3.45-.72 3.45-.72 4.2 2.76l5.55 28.68c.6 3.36.6 3.36-2.85 4.08-3.45.6-3.45.6-4.05-2.76l-5.7-28.68c-.6-3.48-.6-3.48 2.85-4.08z" fill="#29aae1"/><path d="M-443.48 261.75V349c0 9 20.4 16.35 45.5 16.35v-103.6h-45.5z" stroke="#000" stroke-opacity="0" fill="#3999c6"/><path d="M-398.6 365.35h.65c25.1 0 45.47-7.35 45.47-16.37v-87.23h-46.12v103.6z" stroke="#000" stroke-opacity="0" fill="#59b4d9"/><path d="M-352.48 261.75c0 9.05-20.38 16.4-45.5 16.4-25.1 0-45.5-7.35-45.5-16.4 0-9.05 20.4-16.4 45.5-16.4 25.12 0 45.5 7.35 45.5 16.4" stroke="#000" stroke-opacity="0" fill="#fff"/><path d="M-361.78 260.8c0 5.97-16.22 10.82-36.2 10.82-19.98 0-36.2-4.85-36.2-10.82 0-5.97 16.22-10.8 36.2-10.8 19.98 0 36.2 4.83 36.2 10.8" stroke="#000" stroke-opacity="0" fill="#7fba00"/><path d="M-369.38 267.4c4.78-1.82 7.6-4.1 7.6-6.6 0-5.97-16.2-10.8-36.2-10.8-19.98 0-36.2 4.83-36.2 10.8 0 2.5 2.83 4.78 7.6 6.6 6.6-2.55 16.95-4.2 28.6-4.2 11.66 0 22 1.65 28.6 4.2" stroke="#000" stroke-opacity="0" fill="#b8d432"/><path d="M-368.54 332.45c-2.45 2.04-5.75 3.04-10.05 3.04h-14.28v-37.1h13.56c4.23 0 7.54.77 9.8 2.37 2.1 1.52 3.16 3.63 3.16 6.3 0 2.16-.8 3.97-2.38 5.6-1.32 1.3-2.9 2.23-4.9 2.8v.06c2.65.34 4.84 1.34 6.43 3.05 1.5 1.6 2.3 3.56 2.3 5.82 0 3.4-1.26 6.05-3.64 8.05m-34.86-2.2c-3.58 3.5-8.4 5.24-14.42 5.24h-13.24v-37.1h13.24c13.23 0 19.84 6 19.84 18.06 0 5.75-1.78 10.4-5.42 13.8" stroke="#000" stroke-opacity="0" fill="#fff"/><path d="M-418.54 305.16h-4.14v23.56h4.2c3.67 0 6.5-1.15 8.62-3.35 2.03-2.2 3.04-5.1 3.04-8.8 0-3.5-1-6.22-3-8.25-2.06-2.1-4.96-3.16-8.72-3.16" stroke="#000" stroke-opacity="0" fill="#3999c6"/><path d="M-376.75 312.08c1-.88 1.5-2.02 1.5-3.44 0-2.75-2-4.12-6.1-4.12h-3.17v8.8h3.72c1.7 0 3.08-.43 4.05-1.24M-375.38 320.8c-1.1-.82-2.6-1.28-4.56-1.28h-4.6v9.8h4.56c1.94 0 3.5-.47 4.65-1.38 1.05-.92 1.6-2.1 1.6-3.66.02-1.47-.54-2.65-1.65-3.47" stroke="#000" stroke-opacity="0" fill="#59b4d9"/><path d="M-24.64 123.17c-1.14.1-2.05.34-2.96.8l-39.44 19.43c-2.16 1.02-3.64 2.84-4.1 5.23l-9.77 43.76c-.47 2.04-.13 4.08 1 5.9.12.23.24.34.47.57l27.28 35c1.48 1.94 3.52 2.97 5.9 2.97h43.9c2.37 0 4.42-1.03 5.9-2.96l27.28-35c1.48-1.94 2.05-4.22 1.48-6.6l-9.77-43.65c-.45-2.4-1.93-4.2-4.1-5.23L-21 123.96c-1.26-.57-2.4-.9-3.64-.8z" stroke="#000" stroke-opacity="0" stroke-width="0" fill="#54c45e"/><path d="M-24.66 120c-1.2.12-2.16.36-3.12.84l-41.64 20.52c-2.28 1.08-3.84 3-4.32 5.52l-10.32 46.2c-.48 2.16-.12 4.32 1.08 6.24.12.24.24.36.48.6l28.8 36.96c1.56 2.04 3.72 3.12 6.24 3.12h46.32c2.52 0 4.68-1.08 6.24-3.12l28.8-36.96c1.56-2.04 2.16-4.44 1.56-6.84l-10.32-46.2c-.48-2.52-2.04-4.44-4.32-5.52l-41.64-20.52c-1.32-.6-2.52-.96-3.84-.84zm0 3.12c1.32 0 2.4.24 3.6.84l39.6 19.44c2.04 1.08 3.48 2.88 4.08 5.28l9.72 43.68c.48 2.4 0 4.56-1.44 6.48L3.54 233.88c-1.44 1.92-3.48 3-5.88 3h-43.92c-2.4 0-4.44-1.08-5.88-3l-27.36-35.04c-.12-.12-.24-.36-.36-.6-1.2-1.8-1.56-3.72-1.08-5.88l9.72-43.68c.6-2.4 1.92-4.2 4.08-5.28l39.6-19.44c.96-.48 1.8-.72 2.88-.84z" stroke="#000" stroke-opacity="0" stroke-width="0" fill="#fff"/><path d="M4.03 178.4H-.55v-12.63c0-3.53-2.77-6.4-6.2-6.4H-19v-4.7c0-4.4-3.48-7.92-7.68-7.92-4.25 0-7.67 3.52-7.67 7.9v4.73h-12.33c-3.35 0-6.12 2.86-6.12 6.4v12.03h4.58c4.58 0 8.32 3.8 8.32 8.52s-3.74 8.58-8.32 8.58h-4.58v12.03c0 3.46 2.77 6.32 6.12 6.32H-35v-4.72c0-4.72 3.74-8.58 8.32-8.58 4.6 0 8.26 3.86 8.26 8.58v4.72h11.68c3.42 0 6.2-2.86 6.2-6.3v-12.72h4.57c4.26 0 7.68-3.52 7.68-7.9 0-4.33-3.4-7.93-7.67-7.93z" stroke="#000" stroke-opacity="0" stroke-width="1.74" fill="#fff"/><use xlink:href="#h" transform="matrix(1,0,0,1,-114.30176249972826,249) translate(34.55555555555555 21.333333333333336)"/><use xlink:href="#i" transform="matrix(1,0,0,1,-114.30176249972826,249) translate(118.85185185185185 21.333333333333336)"/><use xlink:href="#j" transform="matrix(1,0,0,1,-114.30176249972826,249) translate(50.81481481481481 53.333333333333336)"/><path d="M-329.52 327.38l23.78.2 8.63.52 5.83.6 4.55.68 3.83.73 3.38.8 3.07.86 2.9.93 2.75 1.02 2.7 1.14 2.73 1.28 2.77 1.45 2.9 1.66 3.1 1.97 3.42 2.38 3.9 2.97 4.67 3.87 6.03 5.45 8.9 8.75 3.13 3.34" stroke="#3a414a" stroke-width="2" stroke-linejoin="round" fill="none"/><path d="M-343.5 327.26l13.04-7.4-.12 15zM-216.1 379.13l-13.13-7.24 6.76-6.35z" stroke="#3a414a" stroke-width="2" fill="#3a414a"/><path d="M177.48 764.34h.06v.02h.04l17.5 5.15h.02v.02h.06l11.97 4.1h.06v.02l9.1 3.53h.02v.02h.04l7.3 3.2h.04v.02h.02l6.05 2.96h.02v.02h.04l5.12 2.8h.04v.02h.02l4.43 2.65h.02v.02h.04l3.86 2.54h.02v.02h.02v.02h.02l3.43 2.46h.02v.04h.02l3.06 2.4h.02v.02h.02v.02h.02l2.74 2.34.02.02h.02v.02h.02v.02l2.48 2.3h.02v.02h.02v.02h.02l2.25 2.3h.02v.02h.02v.02h.02l2.05 2.27v.02h.04v.02l1.9 2.26v.04h.02v.02h.02l1.74 2.27v.02h.02v.04h.02l1.6 2.3h.02v.02h.02v.04l1.5 2.3v.04h.02v.02l1.37 2.34.02.02v.02h.02v.02l1.25 2.38v.02h.02v.04h.02v.02l1.15 2.43v.02h.02v.04l1.08 2.5v.02h.02v.04l.98 2.58v.02h.02v.06l.9 2.67v.06h.02l.78 2.78v.06h.02v.02l.7 2.9v.08l.6 3.05h.02v.06l.5 3.22v.08l.4 3.42v.08l.25 3.64v.08l.06 2.47-3.94.1-.08-2.42-.24-3.56-.37-3.33-.47-3.13-.58-2.96-.68-2.82-.77-2.7-.86-2.58-.94-2.5-1.03-2.4-1.13-2.36-1.22-2.3-1.32-2.26-1.43-2.23-1.55-2.22-1.7-2.2-1.82-2.18-2-2.2-2.2-2.22-2.4-2.24-2.7-2.28-2.97-2.34-3.35-2.4-3.8-2.48-4.34-2.6-5.04-2.73-5.96-2.9-7.2-3.16-9.03-3.5-11.87-4.05-17.4-5.13-67.42-16h3.15v-3.32zm-349.16-246.27l3.45 14.38 3.78 13.26 4.07 12.3 4.32 11.43 4.58 10.7 4.8 10.08 5.04 9.52 5.27 9.02 5.52 8.58 5.77 8.2 6.05 7.88 6.35 7.6 6.67 7.3 7.03 7.12 7.44 6.9 7.9 6.75 8.44 6.6 9.06 6.5 9.78 6.42 10.63 6.34 11.67 6.33 12.98 6.34 14.66 6.43 15.78 6.14h-10.9l-6.35-2.47h-.02v-.02h-.04l-14.74-6.47h-.06v-.02h-.02l-13.05-6.38h-.02v-.02h-.04v-.02l-11.75-6.37v-.02h-.04v-.02h-.02l-10.7-6.4h-.02v-.02h-.02v-.02h-.02l-9.86-6.46v-.02h-.04v-.02h-.02l-9.12-6.56h-.02v-.02h-.04v-.02l-8.5-6.66h-.02v-.02h-.02v-.02h-.02v-.02h-.02l-7.97-6.8h-.02v-.02h-.02v-.02h-.02l-7.5-6.98v-.02h-.02v-.02h-.02v-.02l-7.1-7.16h-.02v-.02h-.02V651h-.02V651l-6.73-7.38v-.02h-.02v-.02h-.02v-.02h-.02l-6.38-7.65h-.02v-.02h-.02v-.02l-.02-.02-6.1-7.94v-.02h-.02v-.02h-.02v-.02l-5.82-8.28-.02-.02v-.02h-.02v-.02l-5.57-8.66h-.02v-.04h-.02v-.02l-5.33-9.1v-.02h-.02v-.04l-5.1-9.6v-.04h-.02v-.02l-4.85-10.15v-.02h-.02v-.04l-4.6-10.8v-.02h-.02v-.04h-.02l-4.35-11.53v-.04h-.02v-.02l-4.1-12.37v-.06l-3.82-13.34v-.06h-.02v-.02l-3.47-14.47v-.04h-.02v-.02l-2.82-14.37 3.87-.75z" stroke="#6db1ff" stroke-width=".05" fill="#6db1ff"/><path d="M-169.33 501l-14.82 2.3 5.4-13.98z" fill="#6db1ff"/><path d="M-165.65 502.4l-21.58 3.4 7.87-20.4zm-15.43-1.57l8.06-1.26-5.12-6.35z" stroke="#6db1ff" stroke-width=".05" fill="#6db1ff"/><path d="M276.98 854.5h-3.96v-2.05h3.95z" fill="#6db1ff"/><path stroke="#6db1ff" stroke-width=".05" fill="#6db1ff"/><use xlink:href="#k" transform="matrix(1,0,0,1,-6.051369820107325,720.1664371526615) translate(0 21.333333333333336)"/><path d="M40.76 176.07l1.62-.64 3.68-1.26 3.92-1.17 4.2-1.06 4.5-.94 4.9-.8 5.32-.66 5.86-.46 6.5-.25 7.3.03 8.27.38 9.53.84 11.18 1.47 13.43 2.33 16.66 3.62 21.75 5.7 31.06 9.56 57.58 20.5 227.9 85.4 56.3 17.3 45.27 11.83 38.7 8.4 34.16 5.92 30.8 4.02 28.2 2.48 26.08 1.2 12.56.16" stroke="#54c45e" stroke-width="4" stroke-linejoin="round" fill="none"/><path d="M40.8 176.05l-1.9.74" stroke="#54c45e" stroke-width="4" fill="none"/><path d="M760 348.02v3.96l-2.08-.03.05-3.95z" stroke="#54c45e" stroke-width=".05" fill="#54c45e"/><use xlink:href="#l" transform="matrix(1,0,0,1,29.761391836838712,127.80699251804036) translate(0 24.888888888888893)"/><path d="M911.83 349.64l38.7-5.88 51.3-10.07 114.33-24.6 27.73-4.2 24.58-2.7 23.9-1.6 4.9-.1" stroke="#6db1ff" stroke-width="4" stroke-linejoin="round" fill="none"/><path d="M912.18 351.58l-2.33.36v-4l1.74-.26z" stroke="#6db1ff" stroke-width=".05" fill="#6db1ff"/><path d="M1213.53 300.14l-14.16 4.94-.2-9.27z" stroke="#6db1ff" stroke-width="4" fill="#6db1ff"/><path d="M277.15 841.56v.06l.04 3.57-4.96.04-.04-3.5-.27-6.35 4.95-.22zm-7.08-45.25v.06h.02v.04l1.1 3.12v.08h.02l1.05 3.5v.04h.02v.06l1.02 3.98v.04h.02v.06l.98 4.58v.08h.02v.02l.53 3.14-4.88.83-.53-3.1-.96-4.47-.98-3.87-1.02-3.4-1.05-3-.34-.87 4.6-1.82zm-24.96-30.4h.04v.02h.04v.02h.02l2.38 1.5v.02h.02v.02h.04v.02h.02l2.12 1.48h.02v.02h.02v.02h.04v.02l1.93 1.46v.02h.04v.02h.02v.02l1.78 1.46v.02h.04v.02h.02v.02h.02l1.64 1.5h.02v.02h.02v.02h.02v.02h.02l1.54 1.5v.02h.02v.02h.02v.02h.02v.02l1.48 1.56v.02h.02v.02h.02v.02h.02v.02l.7.8-3.75 3.23-.66-.77-1.4-1.48-1.46-1.43-1.56-1.42-1.68-1.4-1.84-1.38-2.04-1.4-2.3-1.46-1.87-1.1 2.48-4.28zm-20.5-9.18l-1.75 4.63-18.6-7.03 1.76-4.63zm-52.76-23l5.75 3.33 6.2 3.24 4.02 1.87-2.1 4.5-4.06-1.92h-.02v-.02h-.04v-.02h-.04l-6.3-3.3h-.04l-.02-.02h-.02v-.02h-.02l-5.83-3.36h-.02v-.02h-.02v-.02h-.04v-.02l-1.3-.82 2.65-4.18zM140.4 708.7l5.2 5.08 5.16 4.64 3.88 3.2-3.15 3.82-3.93-3.24h-.02v-.02h-.02v-.02h-.02v-.02l-5.24-4.7v-.02h-.02v-.02h-.02v-.02h-.02v-.02l-5.3-5.17v-.02h-.02v-.02h-.02v-.02h-.02v-.02l-.26-.27 3.6-3.4zm-56.14-90.53l3.36 7.53-4.52 2-3.38-7.57v-.02h-.02v-.04h-.02v-.02l-4.26-10.77 4.6-1.82zM73.1 588.93l-4.7 1.63-6.04-17.38v-.04h-.02v-.06l-.03-.08h5.24zM60.23 549h-5.18l-1.77-5.88 4.73-1.43z" stroke="#fcce14" stroke-width=".05" fill="#fcce14"/><path d="M58.05 541.75l-4.74 1.43-.95-3.18h5.17z" fill="#fcce14"/><path stroke="#fcce14" stroke-width=".05" fill="#fcce14"/><path d="M277.2 847.7l-4.94.04-.02-2.56 4.94-.05z" stroke="#fcce14" stroke-width=".05" fill="#fcce14"/><use xlink:href="#m" transform="matrix(1,0,0,1,44.19852843943082,635.573463863798) translate(34.005 21.333333333333336)"/><use xlink:href="#n" transform="matrix(1,0,0,1,44.19852843943082,635.573463863798) translate(0.005000000000002558 53.333333333333336)"/><path d="M757.5 350.05l-9.9.2m-19.8.4l-19.8.4m-19.78.75l-19.76 1.23m-19.76 1.24l-9.36.58-10.37 1.1m-19.7 2.06l-19.68 2.08m-19.62 2.76l-19.6 2.9m-19.55 3l-19.45 3.73m-19.45 3.72l-16.3 3.1-3.12.75m-19.26 4.56l-19.26 4.57m-19.27 4.56l-19.26 4.57m-19.17 4.95l-19.17 4.97m-19.17 4.97l-19.16 4.96m-19.17 4.97l-19.17 4.97m-19.16 4.96l-19.17 4.97M222.93 443l-19.16 4.97m-19.17 4.97l-19.17 4.97m-19.16 4.98l-19.17 4.97m-19.17 4.97l-9.58 2.48" stroke="#fcce14" stroke-width="5" stroke-linejoin="round" fill="none"/><path d="M760 352.48l-2.52.05-.1-4.95 2.62-.06zM99.03 477.68l-2.56.67-1.08-4.84 2.4-.6z" stroke="#fcce14" stroke-width=".05" fill="#fcce14"/><path d="M351.86 880h365.4" stroke="#6db1ff" stroke-width="4" stroke-linejoin="round" fill="none"/><path d="M351.9 881.98h-2.05V878h2.06z" stroke="#6db1ff" stroke-width=".05" fill="#6db1ff"/><path d="M733.53 880l-14.27 4.63v-9.26z" stroke="#6db1ff" stroke-width="4" fill="#6db1ff"/><path d="M426.8 559.5l-17.1 23.1-17.4 25.7-17.76 28.78-18.2 32.44-18.7 36.9-19.3 42.34-19.92 49.1-19.6 54.8-5.6-2 19.62-54.87v-.04h.02v-.06h.02v-.02l19.97-49.22v-.02h.02v-.04h.02v-.04l19.34-42.47v-.04h.02v-.04h.02v-.04h.02l18.76-37v-.02h.02v-.04h.02v-.04h.02l18.26-32.56v-.02h.02v-.04h.02V634h.02l17.83-28.88v-.02h.02v-.04h.02v-.04h.02l17.47-25.82h.02v-.02h.02v-.04h.02v-.02h.02v-.02l17.2-23.22v-.04h.02v-.02h.02v-.02h.02v-.02l4.1-5.1h7.66zm320.03-205.96l-18.36 5.14-33.55 10.54-27.5 9.94-24.17 9.9-21.98 10.1-20.43 10.44-19.32 10.92-18.48 11.5-17.85 12.17-17.4 12.94L510.76 471l-16.85 14.9-16.73 16.1-15.97 16.7h-7.98l2.82-3.2v-.02h.02v-.02h.02v-.02h.02v-.02h.02v-.02l16.8-17.56v-.02h.02v-.02h.02v-.02h.02v-.02h.02l16.82-16.2h.02v-.02h.02v-.02h.02v-.02h.02v-.02l16.95-14.98h.02v-.02h.02v-.02h.02v-.02h.02v-.02l17.16-13.94h.02v-.02h.02v-.02h.04v-.02h.02l17.5-13.04v-.02h.02v-.02h.04v-.02h.02v-.02l17.96-12.24h.02v-.02h.04V427h.02V427h.02l18.6-11.56v-.02h.04v-.02h.02l.02-.02h.02l19.42-11h.04v-.02h.04v-.02h.02l20.56-10.5v-.02h.04v-.02h.04v-.02h.02l22.1-10.16h.04v-.02h.04v-.02h.04l24.27-9.95h.04l.02-.02h.06l27.64-10h.06v-.02h.06L726.73 353h.04v-.02h.04l18.4-5.17z" stroke="#d916a8" stroke-width=".05" fill="#d916a8"/><path d="M278.84 852.6l-.68 1.9h-6.32l1.4-3.9z" fill="#d916a8"/><path stroke="#d916a8" stroke-width=".05" fill="#d916a8"/><path d="M749.72 352.73l-2.97.83-1.6-5.73 2.96-.83z" stroke="#d916a8" stroke-width=".05" fill="#d916a8"/><use xlink:href="#o" transform="matrix(1,0,0,1,377.6057067066345,518.7057517840603) translate(0.0049999999999954525 21.333333333333336)"/><use xlink:href="#p" transform="matrix(1,0,0,1,377.6057067066345,518.7057517840603) translate(63.04203703703703 21.333333333333336)"/><path d="M912.85 349.88l73.9-1.5 100.86-6.75 110.47-8.45" stroke="#d916a8" stroke-width="6" stroke-linejoin="round" fill="none"/><path d="M913 352.85l-3.15.07v-5.96l3.02-.06z" stroke="#d916a8" stroke-width=".05" fill="#d916a8"/><path d="M1214.02 331.96l-12.38 8.47-1.15-14.96z" stroke="#d916a8" stroke-width="6" fill="#d916a8"/><path d="M911.68 349.12l140.38-63.36 12.98-4.92 9.47-3.14 8.5-2.42 8.87-2.12 1.5-.32 23.26-4.44 18.86-2.75 22.8-2.33 42.73-2.4" stroke="#54c45e" stroke-width="4" stroke-linejoin="round" fill="none"/><path d="M912.54 350.9l-2.7 1.2v-4.33l1.07-.48z" stroke="#54c45e" stroke-width=".05" fill="#54c45e"/><path d="M1216 260.2l-12.6 8.1-.73-14.98z" stroke="#54c45e" stroke-width="4" fill="#54c45e"/><path d="M1199.5 380.27l-10.35.14m-20.73.28l-20.72.28m-20.72.27l-20.72.27m-20.7-.25l-10.27-.65-10.4-1.1m-20.54-2.66l-17.55-2.62-2.92-.57m-20.34-3.96l-20.34-3.96m-20.33-4.05l-20.23-4.5m-20.23-4.48l-10.1-2.24" stroke="#fcce14" stroke-width="5" stroke-linejoin="round" fill="none"/><path d="M1215 380.07l-12.9 7.67-.2-15z" stroke="#fcce14" stroke-width="5" fill="#fcce14"/><path d="M912.9 348.08l-1.08 4.83-1.97-.42v-5.08z" stroke="#fcce14" stroke-width=".05" fill="#fcce14"/><path d="M72.45 180.78h.06l26.94 5.9h.02v.02h.06l23.06 6.08h.04v.02h.04l19.98 6.17h.04v.02h.04l17.48 6.2h.02v.02h.04v.02h.02l15.43 6.22h.04v.02h.02l13.74 6.23v.02h.04v.02h.04l12.3 6.22h.04v.02h.04v.02l11.1 6.2h.04v.02h.04v.02l10.08 6.2h.04v.02h.02l9.2 6.2v.02h.04v.02h.02v.02h.02l8.43 6.2v.02h.02v.02h.04v.02l7.76 6.24h.02v.02h.02v.02h.02l7.2 6.3v.02h.02l.02.02 6.67 6.35h.02v.02h.02v.02h.02l6.2 6.43h.02v.04h.02v.02l5.8 6.5v.02h.02v.02h.02v.02h.02l5.42 6.65v.02h.02v.02h.02v.04l5.1 6.8h.02v.04h.02l4.78 6.98v.02h.02v.02h.02v.02l4.5 7.18v.04h.02v.04l4.23 7.4v.04h.02v.04l3.97 7.7v.04h.02v.04l3.73 8.04v.04h.02v.04l3.48 8.43v.02h.02v.04l3.25 8.88v.04l.02.02v.02l3 9.42v.06h.02v.02l2.73 10.05v.06h.02v.02l2.45 10.82v.08l2.17 11.72v.08l1.8 12.82v.04h.02v.04l1.4 14.22v.08l.9 15.98v.08l.25 18.3v.1l-.62 21.57v.08L326 501.9v.08l-4 35.33v.1l-9.6 61v.02l-28.64 165.16-4.16 36.8-1.97 27.93-.64 22.93-.02 1.28h-3.95v-1.36l.66-22.98v-.08l1.96-28V800l4.18-36.92v-.1h.02v-.02l28.63-165.2 9.6-60.94 3.97-35.24 1.86-26.43.6-21.48-.24-18.24-.9-15.9-1.4-14.12-1.78-12.73-2.13-11.64-2.45-10.72-2.7-9.96-2.98-9.34-3.2-8.8-3.45-8.36-3.68-7.96-3.92-7.63-4.18-7.35-4.44-7.1-4.73-6.9-5.03-6.72-5.37-6.58-5.74-6.46-6.15-6.36-6.6-6.28-7.12-6.23-7.7-6.18-8.37-6.18-9.14-6.15-10-6.15-11.05-6.16-12.22-6.17-13.66-6.2-15.36-6.18-17.4-6.2-19.9-6.13-23-6.06-26.84-5.88-29.83-5.23.68-3.9z" stroke="#54c45e" stroke-width=".05" fill="#54c45e"/><path d="M42.63 175.55l-.7 3.9-2-.37.68-3.9z" stroke="#54c45e" stroke-width=".05" fill="#54c45e"/><path d="M276.98 852.46v2.04h-3.96v-2.06z" fill="#54c45e"/><path stroke="#54c45e" stroke-width=".05" fill="#54c45e"/><path d="M351.85 879.96l56.62-1.15 53.18-3.34 61.17-6.5 198.36-26.45" stroke="#54c45e" stroke-width="4" stroke-linejoin="round" fill="none"/><path d="M351.95 881.93l-2.1.05v-3.96l2-.04z" stroke="#54c45e" stroke-width=".05" fill="#54c45e"/><path d="M736.03 840.53l-11.88 9.15-1.98-14.87z" stroke="#54c45e" stroke-width="4" fill="#54c45e"/><path d="M-280 1264.17a6 6 0 0 1 6-6h988a6 6 0 0 1 6 6v30.37a6 6 0 0 1-6 6h-988a6 6 0 0 1-6-6z" stroke="#3a414a"/><use xlink:href="#q" transform="matrix(1,0,0,1,-274,1264.1666666666667) translate(0 22.77777777777778)"/><path d="M-280 1302.98a6 6 0 0 1 6-6h988a6 6 0 0 1 6 6v30.37a6 6 0 0 1-6 6h-988a6 6 0 0 1-6-6z" stroke="#3a414a" fill="#82755b"/><use xlink:href="#r" transform="matrix(1,0,0,1,-274,1302.9806828391734) translate(0 22.77777777777778)"/><path d="M-280 1341.8a6 6 0 0 1 6-6h988a6 6 0 0 1 6 6v30.37a6 6 0 0 1-6 6h-988a6 6 0 0 1-6-6z" stroke="#3a414a" fill="#6db1ff"/><use xlink:href="#s" transform="matrix(1,0,0,1,-274,1341.79469901168) translate(0 22.77777777777778)"/><path d="M120 1255.67V1202" stroke="#3a414a" stroke-width="4" fill="none"/><path d="M121.97 1255.62v2.05h-3.94v-2.06zM121.97 1202.05h-3.94V1200h3.94z" stroke="#3a414a" stroke-width=".05" fill="#3a414a"/><path d="M125.75 1337.85V1202" stroke="#6db1ff" stroke-width="4" fill="none"/><path d="M127.73 1337.8v2.05h-3.95v-2.05zM127.73 1202.05h-3.95V1200h3.95z" stroke="#6db1ff" stroke-width=".05" fill="#6db1ff"/><path d="M1494.8 385.34V225.9c0-7.82-5.7-20.93-12.9-20.93h-223.8c-7.2 0-14.1 13.1-14.1 20.94v159.44c-25.2 33.13-24 33.13-24 33.13 0 9.43 6.9 16.56 15.9 16.56h268.2c9 0 15.9-7.82 15.9-16.56l-25.2-33.13zm-104.1 35.9h-46.8c-2.4 0-4.8-1.4-4.8-2.77l5.4-10.82c0-1.38 1.8-2.3 4.2-2.3h37.2c1.8 0 3.6.92 3.6 2.3l6 10.82c0 2.07-2.4 2.76-4.8 2.76zm93-36.82h-228.6V227.3c0-3.7 3-8.76 6.3-8.76H1478c3.3 0 5.7 5.06 5.7 8.75V384.4z" stroke="#000" stroke-opacity="0" fill="#00c2a8"/><use xlink:href="#t" transform="matrix(1,0,0,1,1190,444.0299999999999) translate(81.3373456790124 26.84444444444443)"/><use xlink:href="#e" transform="matrix(1,0,0,1,1190,444.0299999999999) translate(207.91635802469133 26.84444444444443)"/><path d="M718.24 926.36l-.37 5.94-33.05-2.08v-5.97zM383.1 877.7H383.24l26.4 1.64H409.75l23.04 2.42h.1v.02h.02l22.52 3.33h.04v.02h.08l27.82 5.36h.04l70.38 14.93v6.1l-71.57-15.18-27.7-5.33-22.4-3.33-22.9-2.4-26.28-1.63-30.13-.6.1-5.95z" stroke="#d916a8" stroke-width=".05" fill="#d916a8"/><path d="M353 877.1l-.13 5.94-3.02-.06v-5.96z" fill="#d916a8"/><path stroke="#d916a8" stroke-width=".05" fill="#d916a8"/><path d="M734 930.33L720.6 937l.94-14.97z" fill="#d916a8"/><path d="M739.95 930.7l-22.67 11.26 1.6-25.26zm-16.08 1.34l4.2-2.08-3.9-2.6z" stroke="#d916a8" stroke-width=".05" fill="#d916a8"/><use xlink:href="#o" transform="matrix(1,0,0,1,553.7795797046281,904.3453540936003) translate(0 21.333333333333336)"/><use xlink:href="#p" transform="matrix(1,0,0,1,553.7795797046281,904.3453540936003) translate(63.03703703703704 21.333333333333336)"/><path d="M-179.7 368.52c-1.15.1-2.06.34-2.97.8l-39.44 19.43c-2.17 1.03-3.65 2.85-4.1 5.23l-9.78 43.77c-.46 2.04-.12 4.1 1.02 5.9.12.23.23.35.46.58l27.28 35c1.48 1.94 3.52 2.96 5.9 2.96h43.9c2.38 0 4.42-1.03 5.9-2.96l27.28-35c1.48-1.95 2.05-4.22 1.48-6.6l-9.78-43.66c-.45-2.38-1.93-4.2-4.1-5.23l-39.43-19.43c-1.25-.57-2.4-.9-3.64-.8z" stroke="#000" stroke-opacity="0" stroke-width="0" fill="#326ce5"/><path d="M-179.73 365.35c-1.2.12-2.16.36-3.12.84l-41.64 20.5c-2.27 1.1-3.83 3-4.3 5.53l-10.33 46.2c-.48 2.16-.12 4.32 1.08 6.24.12.24.24.36.48.6l28.8 36.96c1.56 2.04 3.72 3.12 6.24 3.12h46.32c2.5 0 4.67-1.08 6.23-3.12l28.8-36.96c1.56-2.04 2.16-4.44 1.56-6.84l-10.33-46.2c-.48-2.52-2.04-4.44-4.32-5.52l-41.64-20.5c-1.3-.6-2.5-.97-3.83-.85zm0 3.12c1.32 0 2.4.24 3.6.84l39.6 19.45c2.04 1.08 3.48 2.88 4.08 5.28l9.72 43.68c.48 2.4 0 4.57-1.44 6.5l-27.36 35.03c-1.44 1.92-3.48 3-5.88 3h-43.93c-2.4 0-4.44-1.08-5.88-3l-27.37-35.04c-.12-.13-.24-.37-.36-.6-1.2-1.8-1.56-3.73-1.08-5.9l9.7-43.67c.6-2.4 1.93-4.2 4.1-5.28l39.6-19.44c.95-.47 1.8-.7 2.87-.83z" stroke="#000" stroke-opacity="0" stroke-width="0" fill="#fff"/><path d="M-151.03 423.76h-4.6v-12.64c0-3.52-2.76-6.38-6.18-6.38h-12.27v-4.72c0-4.4-3.48-7.92-7.67-7.92-4.26 0-7.68 3.53-7.68 7.92v4.72h-12.32c-3.36 0-6.13 2.86-6.13 6.38v12.04h4.58c4.6 0 8.33 3.8 8.33 8.5 0 4.73-3.74 8.6-8.32 8.6h-4.57v12.03c0 3.45 2.77 6.3 6.13 6.3h11.67v-4.7c0-4.74 3.75-8.6 8.33-8.6s8.25 3.86 8.25 8.6v4.7h11.7c3.4 0 6.18-2.85 6.18-6.3v-12.7h4.6c4.24 0 7.66-3.54 7.66-7.93 0-4.32-3.42-7.9-7.67-7.9z" stroke="#000" stroke-opacity="0" stroke-width="1.74" fill="#fff"/><path d="M-400 461.9a6 6 0 0 1 6-6h168a6 6 0 0 1 6 6v48a6 6 0 0 1-6 6h-168a6 6 0 0 1-6-6z" stroke="#000" stroke-opacity="0" fill="#fff" fill-opacity="0"/><use xlink:href="#h" transform="matrix(1,0,0,1,-395,460.90103477281923) translate(7.333333333333314 30.708333333333336)"/><use xlink:href="#j" transform="matrix(1,0,0,1,-395,460.90103477281923) translate(91.62962962962962 30.708333333333336)"/><path d="M340 1119a6 6 0 0 1 6-6h168a6 6 0 0 1 6 6v62a6 6 0 0 1-6 6H346a6 6 0 0 1-6-6z" stroke="#000" stroke-opacity="0" fill="#fff" fill-opacity="0"/><use xlink:href="#u" transform="matrix(1,0,0,1,345,1118.0000000000002) translate(0 25.333333333333336)"/><use xlink:href="#v" transform="matrix(1,0,0,1,345,1118.0000000000002) translate(0 57.333333333333336)"/><path d="M583 1119a6 6 0 0 1 6-6h108a6 6 0 0 1 6 6v62a6 6 0 0 1-6 6H589a6 6 0 0 1-6-6z" stroke="#000" stroke-opacity="0" fill="#fff" fill-opacity="0"/><use xlink:href="#w" transform="matrix(1,0,0,1,588,1118) translate(0 25.333333333333336)"/><use xlink:href="#x" transform="matrix(1,0,0,1,588,1118) translate(0 57.333333333333336)"/><path d="M-34 1337.85V1202M-34 1337.8v2.05M-34 1202.05V1200" stroke="#6db1ff" stroke-width="4" fill="none"/><path d="M-29 555.2a6 6 0 0 1 6-6h147.76a6 6 0 0 1 6 6v12.52a6 6 0 0 1-6 6H-23a6 6 0 0 1-6-6z" stroke="#000" stroke-opacity="0" fill="#fff"/><path d="M39.66 423.17c-1.14.1-2.05.34-2.96.8L-2.74 443.4c-2.16 1.02-3.64 2.84-4.1 5.23l-9.77 43.76c-.47 2.04-.13 4.08 1 5.9.13.23.24.34.47.57l27.28 35c1.48 1.94 3.52 2.97 5.9 2.97h43.9c2.38 0 4.42-1.03 5.9-2.96l27.28-35c1.48-1.94 2.05-4.2 1.48-6.6l-9.77-43.65c-.45-2.4-1.93-4.2-4.1-5.23L43.3 423.96c-1.25-.57-2.4-.9-3.64-.8z" stroke="#000" stroke-opacity="0" stroke-width="0" fill="#fcce14"/><path d="M39.64 420c-1.2.12-2.16.36-3.12.84l-41.64 20.52c-2.28 1.08-3.84 3-4.32 5.52l-10.32 46.2c-.48 2.16-.12 4.32 1.08 6.24.12.24.24.36.48.6l28.8 36.96c1.56 2.04 3.72 3.12 6.24 3.12h46.32c2.52 0 4.68-1.08 6.24-3.12l28.8-36.96c1.56-2.04 2.16-4.44 1.56-6.84l-10.32-46.2c-.48-2.52-2.04-4.44-4.32-5.52l-41.64-20.52c-1.32-.6-2.52-.96-3.84-.84zm0 3.12c1.32 0 2.4.24 3.6.84l39.6 19.44c2.04 1.08 3.48 2.88 4.08 5.28l9.72 43.68c.48 2.4 0 4.56-1.44 6.48l-27.36 35.04c-1.44 1.92-3.48 3-5.88 3H18.04c-2.4 0-4.44-1.08-5.88-3l-27.36-35.04c-.12-.12-.24-.36-.36-.6-1.2-1.8-1.56-3.72-1.08-5.88l9.72-43.68c.6-2.4 1.92-4.2 4.08-5.28l39.6-19.44c.96-.48 1.8-.72 2.88-.84z" stroke="#000" stroke-opacity="0" stroke-width="0" fill="#fff"/><path d="M68.33 478.4h-4.58v-12.63c0-3.53-2.77-6.38-6.2-6.38H45.3v-4.74c0-4.4-3.48-7.9-7.67-7.9-4.26 0-7.68 3.5-7.68 7.9v4.72H17.63c-3.36 0-6.13 2.86-6.13 6.4v12.03h4.58c4.58 0 8.32 3.8 8.32 8.52s-3.74 8.58-8.32 8.58H11.5v12.04c0 3.45 2.77 6.3 6.13 6.3H29.3v-4.7c0-4.73 3.75-8.6 8.33-8.6s8.25 3.87 8.25 8.6v4.7h11.68c3.42 0 6.2-2.85 6.2-6.3v-12.7h4.57c4.26 0 7.68-3.53 7.68-7.92 0-4.32-3.4-7.92-7.67-7.92z" stroke="#000" stroke-opacity="0" stroke-width="1.74" fill="#fff"/><use xlink:href="#y" transform="matrix(1,0,0,1,-50,549) translate(5.8148148148148096 21.333333333333336)"/><use xlink:href="#z" transform="matrix(1,0,0,1,-50,549) translate(87 21.333333333333336)"/><use xlink:href="#A" transform="matrix(1,0,0,1,-50,549) translate(101.81481481481481 21.333333333333336)"/><path d="M526 1294.48V1202M526 1294.43v2.05M526 1202.05V1200" stroke="#82755b" stroke-width="4" fill="none"/><path d="M-280 973.06a6 6 0 0 1 6-6h213.6a6 6 0 0 1 6 6v48a6 6 0 0 1-6 6H-274a6 6 0 0 1-6-6z" fill="none"/><use xlink:href="#B" transform="matrix(1,0,0,1,-280,967.0599999999998) translate(0 36.66666666666667)"/><use xlink:href="#C" transform="matrix(1,0,0,1,-280,967.0599999999998) translate(99.90740740740742 36.66666666666667)"/><path d="M275.04 911.94l1 55.47 3.16 89.9" stroke="#6db1ff" stroke-width="4" stroke-linejoin="round" fill="none"/><path d="M277 911.96l-3.94.07-.04-2.1h3.96z" stroke="#6db1ff" stroke-width=".05" fill="#6db1ff"/><path d="M279.77 1073.56l-5.13-14.1 9.27-.32z" stroke="#6db1ff" stroke-width="4" fill="#6db1ff"/><path d="M274.95 912.44l-.1 4.08-.36 5.85m-2.75 19.67l-.63 3.27-2.13 9.06-1.96 6.98m-5.85 19l-6 18.94m-5.8 19l-1 4.3-1.13 5.88-.77 5.2-.44 4.2m.2 19.83l.1 1.1.58 3.85.74 3.85.22.98" stroke="#fcce14" stroke-width="5" stroke-linejoin="round" fill="none"/><path d="M277.42 912.56l-4.95-.1.05-2.52h4.96z" stroke="#fcce14" stroke-width=".05" fill="#fcce14"/><path d="M253.5 1083.22l-9.14-11.88 8.73-3.1z" stroke="#fcce14" stroke-width="5" fill="#fcce14"/><path d="M309.66 1069.43l.4-1.75.63-3.43.48-3.42.33-3.42.2-3.45.06-3.53-.1-3.62-.26-3.76-.44-3.96-.65-4.23-.9-4.6-1.25-5.18-1.74-6.07-2.57-7.76-5.1-13.36-13.36-33.62-3.12-9.38-2.2-7.73-1.67-6.87-1.25-6.35-.93-6.03-.65-5.8-.4-5.7-.1-3.46" stroke="#d916a8" stroke-width="6" stroke-linejoin="round" fill="none"/><path d="M304.28 1084.44l-2.68-14.76 14.12 5.06z" stroke="#d916a8" stroke-width="6" fill="#d916a8"/><path d="M277.98 913l-5.95.03v-3.1h5.95z" stroke="#d916a8" stroke-width=".05" fill="#d916a8"/><path d="M520 1255.67V1202" stroke="#3a414a" stroke-width="4" fill="none"/><path d="M521.98 1257.67H518v-2.06l3.96.02zM521.98 1202.05H518V1200H522z" stroke="#3a414a" stroke-width=".05" fill="#3a414a"/><path d="M280 1294.48V1202" stroke="#82755b" stroke-width="4" fill="none"/><path d="M281.98 1296.48h-3.96v-2.05h3.96zM281.98 1202.05h-3.96V1200h3.96z" stroke="#82755b" stroke-width=".05" fill="#82755b"/><path d="M274.02 1255.67V1202" stroke="#3a414a" stroke-width="4" fill="none"/><path d="M276 1257.67h-3.95v-2.06l3.95.02zM276 1202.05h-3.95V1200H276z" stroke="#3a414a" stroke-width=".05" fill="#3a414a"/><path d="M-39.88 394.2L-107 407.86l-.8-3.87 67.92-13.83zm443.22-47.77l354.67 1.6v3.94l-354.64-1.6-126.82 3.9-94.92 7-90.64 10.6-12.56 2v-4l11.97-1.92h.08l90.73-10.6h.08l95-7.03h.08l126.92-3.9h.06z" stroke="#6db1ff" stroke-width=".05" fill="#6db1ff"/><path d="M-107.87 413.67l-14.23-4.76 11.24-9.93z" fill="#6db1ff"/><path d="M-105.25 416.63l-20.72-6.93 16.36-14.47zm-12.97-8.5l7.73 2.58-1.6-7.98z" stroke="#6db1ff" stroke-width=".05" fill="#6db1ff"/><path d="M760 348.02v3.96h-2.06l.02-3.96z" fill="#6db1ff"/><path stroke="#6db1ff" stroke-width=".05" fill="#6db1ff"/><g><use xlink:href="#k" transform="matrix(1,0,0,1,-39.87829193995414,365.31877875773694) translate(0 21.333333333333336)"/></g><path d="M-102.83 204.16l-2.08 1.03-6.7 3.66-5.9 3.57-5.28 3.5-4.8 3.5-4.35 3.44-4 3.46-3.73 3.5-3.46 3.52-3.24 3.6-3.05 3.7-2.9 3.8-2.74 3.94-2.6 4.1-2.5 4.32-2.4 4.57-2.3 4.86-2.2 5.24-2.1 5.67-2.02 6.2-1.92 6.9-1.8 7.73-1.7 8.82-1.5 10.27-1.28 12.25-.94 15.13-.33 12.08" stroke="#3a414a" stroke-width="2" stroke-linejoin="round" fill="none"/><path d="M-90.15 198.27l-8.62 12.27-6.32-13.6z" stroke="#3a414a" stroke-width="2" fill="#3a414a"/><path d="M-180.63 356.53l-.03 1.03" stroke="#3a414a" stroke-width="2" fill="none"/><path d="M-40.88 482.72l-20.65-.12-13.62-.78-8.2-.87-5.85-.92-4.64-.96-3.93-1.02-3.53-1.1-3.34-1.22-3.34-1.4-3.56-1.72-4.2-2.27-6.32-3.84-5.25-3.45" stroke="#3a414a" stroke-width="2" stroke-linejoin="round" fill="none"/><path d="M-26.9 482.8l-13.02 7.43.08-15z" stroke="#3a414a" stroke-width="2" fill="#3a414a"/><path d="M-127.3 463.06l-.85-.56" stroke="#3a414a" stroke-width="2" fill="none"/><defs><path fill="#54c45e" d="M182-130c37 4 62 22 62 59C244 23 116-4 24 0v-248c84 5 203-23 205 63 0 31-19 50-47 55zM76-148c40-3 101 13 101-30 0-44-60-28-101-31v61zm0 110c48-3 116 14 116-37 0-48-69-32-116-35v72" id="D"/><path fill="#54c45e" d="M135-150c-39-12-60 13-60 57V0H25l-1-190h47c2 13-1 29 3 40 6-28 27-53 61-41v41" id="E"/><path fill="#54c45e" d="M25-224v-37h50v37H25zM25 0v-190h50V0H25" id="F"/><path fill="#54c45e" d="M88-194c31-1 46 15 58 34l-1-101h50l1 261h-48c-2-10 0-23-3-31C134-8 116 4 84 4 32 4 16-41 15-95c0-56 19-97 73-99zm17 164c33 0 40-30 41-66 1-37-9-64-41-64s-38 30-39 65c0 43 13 65 39 65" id="G"/><path fill="#54c45e" d="M195-6C206 82 75 100 31 46c-4-6-6-13-8-21l49-6c3 16 16 24 34 25 40 0 42-37 40-79-11 22-30 35-61 35-53 0-70-43-70-97 0-56 18-96 73-97 30 0 46 14 59 34l2-30h47zm-90-29c32 0 41-27 41-63 0-35-9-62-40-62-32 0-39 29-40 63 0 36 9 62 39 62" id="H"/><path fill="#54c45e" d="M185-48c-13 30-37 53-82 52C43 2 14-33 14-96s30-98 90-98c62 0 83 45 84 108H66c0 31 8 55 39 56 18 0 30-7 34-22zm-45-69c5-46-57-63-70-21-2 6-4 13-4 21h74" id="I"/><g id="a"><use transform="matrix(0.07407407407407408,0,0,0.07407407407407408,0,0)" xlink:href="#D"/><use transform="matrix(0.07407407407407408,0,0,0.07407407407407408,19.185185185185187,0)" xlink:href="#E"/><use transform="matrix(0.07407407407407408,0,0,0.07407407407407408,29.555555555555554,0)" xlink:href="#F"/><use transform="matrix(0.07407407407407408,0,0,0.07407407407407408,36.96296296296296,0)" xlink:href="#G"/><use transform="matrix(0.07407407407407408,0,0,0.07407407407407408,53.18518518518519,0)" xlink:href="#H"/><use transform="matrix(0.07407407407407408,0,0,0.07407407407407408,69.40740740740742,0)" xlink:href="#I"/></g><path fill="#54c45e" d="M238-95c0 69-44 99-111 99C63 4 22-25 22-93v-155h51v151c-1 38 19 59 55 60 90 1 49-130 58-211h52v153" id="J"/><path fill="#54c45e" d="M24 0v-248h52V0H24" id="K"/><g id="b"><use transform="matrix(0.07407407407407408,0,0,0.07407407407407408,0,0)" xlink:href="#J"/><use transform="matrix(0.07407407407407408,0,0,0.07407407407407408,19.185185185185187,0)" xlink:href="#K"/></g><path d="M30 0v-248h33v221h125V0H30" id="L"/><path d="M100-194c62-1 85 37 85 99 1 63-27 99-86 99S16-35 15-95c0-66 28-99 85-99zM99-20c44 1 53-31 53-75 0-43-8-75-51-75s-53 32-53 75 10 74 51 75" id="M"/><path d="M96-169c-40 0-48 33-48 73s9 75 48 75c24 0 41-14 43-38l32 2c-6 37-31 61-74 61-59 0-76-41-82-99-10-93 101-131 147-64 4 7 5 14 7 22l-32 3c-4-21-16-35-41-35" id="N"/><path d="M141-36C126-15 110 5 73 4 37 3 15-17 15-53c-1-64 63-63 125-63 3-35-9-54-41-54-24 1-41 7-42 31l-33-3c5-37 33-52 76-52 45 0 72 20 72 64v82c-1 20 7 32 28 27v20c-31 9-61-2-59-35zM48-53c0 20 12 33 32 33 41-3 63-29 60-74-43 2-92-5-92 41" id="O"/><path d="M24 0v-261h32V0H24" id="P"/><g id="d"><use transform="matrix(0.09320987654320982,0,0,0.09320987654320982,0,0)" xlink:href="#L"/><use transform="matrix(0.09320987654320982,0,0,0.09320987654320982,18.641975308641964,0)" xlink:href="#M"/><use transform="matrix(0.09320987654320982,0,0,0.09320987654320982,37.28395061728393,0)" xlink:href="#N"/><use transform="matrix(0.09320987654320982,0,0,0.09320987654320982,54.0617283950617,0)" xlink:href="#O"/><use transform="matrix(0.09320987654320982,0,0,0.09320987654320982,72.70370370370365,0)" xlink:href="#P"/></g><path d="M30-248c87 1 191-15 191 75 0 78-77 80-158 76V0H30v-248zm33 125c57 0 124 11 124-50 0-59-68-47-124-48v98" id="Q"/><path d="M100-194c63 0 86 42 84 106H49c0 40 14 67 53 68 26 1 43-12 49-29l28 8c-11 28-37 45-77 45C44 4 14-33 15-96c1-61 26-98 85-98zm52 81c6-60-76-77-97-28-3 7-6 17-6 28h103" id="R"/><path d="M114-163C36-179 61-72 57 0H25l-1-190h30c1 12-1 29 2 39 6-27 23-49 58-41v29" id="S"/><g id="e"><use transform="matrix(0.09320987654320982,0,0,0.09320987654320982,0,0)" xlink:href="#Q"/><use transform="matrix(0.09320987654320982,0,0,0.09320987654320982,22.370370370370356,0)" xlink:href="#R"/><use transform="matrix(0.09320987654320982,0,0,0.09320987654320982,41.01234567901232,0)" xlink:href="#R"/><use transform="matrix(0.09320987654320982,0,0,0.09320987654320982,59.65432098765429,0)" xlink:href="#S"/></g><path fill="#3a414a" d="M30-248c118-7 216 8 213 122C240-48 200 0 122 0H30v-248zM63-27c89 8 146-16 146-99s-60-101-146-95v194" id="T"/><path fill="#3a414a" d="M100-194c62-1 85 37 85 99 1 63-27 99-86 99S16-35 15-95c0-66 28-99 85-99zM99-20c44 1 53-31 53-75 0-43-8-75-51-75s-53 32-53 75 10 74 51 75" id="U"/><path fill="#3a414a" d="M96-169c-40 0-48 33-48 73s9 75 48 75c24 0 41-14 43-38l32 2c-6 37-31 61-74 61-59 0-76-41-82-99-10-93 101-131 147-64 4 7 5 14 7 22l-32 3c-4-21-16-35-41-35" id="V"/><path fill="#3a414a" d="M143 0L79-87 56-68V0H24v-261h32v163l83-92h37l-77 82L181 0h-38" id="W"/><path fill="#3a414a" d="M100-194c63 0 86 42 84 106H49c0 40 14 67 53 68 26 1 43-12 49-29l28 8c-11 28-37 45-77 45C44 4 14-33 15-96c1-61 26-98 85-98zm52 81c6-60-76-77-97-28-3 7-6 17-6 28h103" id="X"/><path fill="#3a414a" d="M114-163C36-179 61-72 57 0H25l-1-190h30c1 12-1 29 2 39 6-27 23-49 58-41v29" id="Y"/><g id="f"><use transform="matrix(0.06172839506172839,0,0,0.06172839506172839,0,0)" xlink:href="#T"/><use transform="matrix(0.06172839506172839,0,0,0.06172839506172839,15.987654320987653,0)" xlink:href="#U"/><use transform="matrix(0.06172839506172839,0,0,0.06172839506172839,28.333333333333332,0)" xlink:href="#V"/><use transform="matrix(0.06172839506172839,0,0,0.06172839506172839,39.44444444444444,0)" xlink:href="#W"/><use transform="matrix(0.06172839506172839,0,0,0.06172839506172839,50.55555555555556,0)" xlink:href="#X"/><use transform="matrix(0.06172839506172839,0,0,0.06172839506172839,62.901234567901234,0)" xlink:href="#Y"/></g><path fill="#3a414a" d="M212-179c-10-28-35-45-73-45-59 0-87 40-87 99 0 60 29 101 89 101 43 0 62-24 78-52l27 14C228-24 195 4 139 4 59 4 22-46 18-125c-6-104 99-153 187-111 19 9 31 26 39 46" id="Z"/><path fill="#3a414a" d="M117-194c89-4 53 116 60 194h-32v-121c0-31-8-49-39-48C34-167 62-67 57 0H25l-1-190h30c1 10-1 24 2 32 11-22 29-35 61-36" id="aa"/><path fill="#3a414a" d="M59-47c-2 24 18 29 38 22v24C64 9 27 4 27-40v-127H5v-23h24l9-43h21v43h35v23H59v120" id="ab"/><path fill="#3a414a" d="M141-36C126-15 110 5 73 4 37 3 15-17 15-53c-1-64 63-63 125-63 3-35-9-54-41-54-24 1-41 7-42 31l-33-3c5-37 33-52 76-52 45 0 72 20 72 64v82c-1 20 7 32 28 27v20c-31 9-61-2-59-35zM48-53c0 20 12 33 32 33 41-3 63-29 60-74-43 2-92-5-92 41" id="ac"/><path fill="#3a414a" d="M24-231v-30h32v30H24zM24 0v-190h32V0H24" id="ad"/><path fill="#3a414a" d="M135-143c-3-34-86-38-87 0 15 53 115 12 119 90S17 21 10-45l28-5c4 36 97 45 98 0-10-56-113-15-118-90-4-57 82-63 122-42 12 7 21 19 24 35" id="ae"/><g id="g"><use transform="matrix(0.06172839506172839,0,0,0.06172839506172839,0,0)" xlink:href="#Z"/><use transform="matrix(0.06172839506172839,0,0,0.06172839506172839,15.987654320987653,0)" xlink:href="#U"/><use transform="matrix(0.06172839506172839,0,0,0.06172839506172839,28.333333333333332,0)" xlink:href="#aa"/><use transform="matrix(0.06172839506172839,0,0,0.06172839506172839,40.67901234567901,0)" xlink:href="#ab"/><use transform="matrix(0.06172839506172839,0,0,0.06172839506172839,46.851851851851855,0)" xlink:href="#ac"/><use transform="matrix(0.06172839506172839,0,0,0.06172839506172839,59.19753086419753,0)" xlink:href="#ad"/><use transform="matrix(0.06172839506172839,0,0,0.06172839506172839,64.07407407407408,0)" xlink:href="#aa"/><use transform="matrix(0.06172839506172839,0,0,0.06172839506172839,76.41975308641976,0)" xlink:href="#X"/><use transform="matrix(0.06172839506172839,0,0,0.06172839506172839,88.76543209876544,0)" xlink:href="#Y"/><use transform="matrix(0.06172839506172839,0,0,0.06172839506172839,96.11111111111113,0)" xlink:href="#ae"/></g><path fill="#3a414a" d="M160-131c35 5 61 23 61 61C221 17 115-2 30 0v-248c76 3 177-17 177 60 0 33-19 50-47 57zm-97-11c50-1 110 9 110-42 0-47-63-36-110-37v79zm0 115c55-2 124 14 124-45 0-56-70-42-124-44v89" id="af"/><path fill="#3a414a" d="M85-194c31 0 48 13 60 33l-1-100h32l1 261h-30c-2-10 0-23-3-31C134-8 116 4 85 4 32 4 16-35 15-94c0-66 23-100 70-100zm9 24c-40 0-46 34-46 75 0 40 6 74 45 74 42 0 51-32 51-76 0-42-9-74-50-73" id="ag"/><path fill="#3a414a" d="M177-190C167-65 218 103 67 71c-23-6-38-20-44-43l32-5c15 47 100 32 89-28v-30C133-14 115 1 83 1 29 1 15-40 15-95c0-56 16-97 71-98 29-1 48 16 59 35 1-10 0-23 2-32h30zM94-22c36 0 50-32 50-73 0-42-14-75-50-75-39 0-46 34-46 75s6 73 46 73" id="ah"/><g id="h"><use transform="matrix(0.07407407407407408,0,0,0.07407407407407408,0,0)" xlink:href="#af"/><use transform="matrix(0.07407407407407408,0,0,0.07407407407407408,17.77777777777778,0)" xlink:href="#Y"/><use transform="matrix(0.07407407407407408,0,0,0.07407407407407408,26.592592592592595,0)" xlink:href="#ad"/><use transform="matrix(0.07407407407407408,0,0,0.07407407407407408,32.44444444444445,0)" xlink:href="#ag"/><use transform="matrix(0.07407407407407408,0,0,0.07407407407407408,47.25925925925927,0)" xlink:href="#ah"/><use transform="matrix(0.07407407407407408,0,0,0.07407407407407408,62.07407407407408,0)" xlink:href="#X"/></g><path fill="#3a414a" d="M232-93c-1 65-40 97-104 97C67 4 28-28 28-90v-158h33c8 89-33 224 67 224 102 0 64-133 71-224h33v155" id="ai"/><path fill="#3a414a" d="M33 0v-248h34V0H33" id="aj"/><g id="i"><use transform="matrix(0.07407407407407408,0,0,0.07407407407407408,0,0)" xlink:href="#ai"/><use transform="matrix(0.07407407407407408,0,0,0.07407407407407408,19.185185185185187,0)" xlink:href="#aj"/></g><path fill="#3a414a" d="M185-189c-5-48-123-54-124 2 14 75 158 14 163 119 3 78-121 87-175 55-17-10-28-26-33-46l33-7c5 56 141 63 141-1 0-78-155-14-162-118-5-82 145-84 179-34 5 7 8 16 11 25" id="ak"/><path fill="#3a414a" d="M108 0H70L1-190h34L89-25l56-165h34" id="al"/><g id="j"><use transform="matrix(0.07407407407407408,0,0,0.07407407407407408,0,0)" xlink:href="#ak"/><use transform="matrix(0.07407407407407408,0,0,0.07407407407407408,17.77777777777778,0)" xlink:href="#X"/><use transform="matrix(0.07407407407407408,0,0,0.07407407407407408,32.592592592592595,0)" xlink:href="#Y"/><use transform="matrix(0.07407407407407408,0,0,0.07407407407407408,41.40740740740741,0)" xlink:href="#al"/><use transform="matrix(0.07407407407407408,0,0,0.07407407407407408,54.74074074074075,0)" xlink:href="#X"/><use transform="matrix(0.07407407407407408,0,0,0.07407407407407408,69.55555555555557,0)" xlink:href="#Y"/></g><path fill="#1071e5" d="M169-182c-1-43-94-46-97-3 18 66 151 10 154 114 3 95-165 93-204 36-6-8-10-19-12-30l50-8c3 46 112 56 116 5-17-69-150-10-154-114-4-87 153-88 188-35 5 8 8 18 10 28" id="am"/><path fill="#1071e5" d="M110-194c64 0 96 36 96 99 0 64-35 99-97 99-61 0-95-36-95-99 0-62 34-99 96-99zm-1 164c35 0 45-28 45-65 0-40-10-65-43-65-34 0-45 26-45 65 0 36 10 65 43 65" id="an"/><path fill="#1071e5" d="M190-63c-7 42-38 67-86 67-59 0-84-38-90-98-12-110 154-137 174-36l-49 2c-2-19-15-32-35-32-30 0-35 28-38 64-6 74 65 87 74 30" id="ao"/><path fill="#1071e5" d="M147 0L96-86 75-71V0H25v-261h50v150l67-79h53l-66 74L201 0h-54" id="ap"/><path fill="#1071e5" d="M185-48c-13 30-37 53-82 52C43 2 14-33 14-96s30-98 90-98c62 0 83 45 84 108H66c0 31 8 55 39 56 18 0 30-7 34-22zm-45-69c5-46-57-63-70-21-2 6-4 13-4 21h74" id="aq"/><path fill="#1071e5" d="M115-3C79 11 28 4 28-45v-112H4v-33h27l15-45h31v45h36v33H77v99c-1 23 16 31 38 25v30" id="ar"/><path fill="#1071e5" d="M24 0v-54h51V0H24" id="as"/><path fill="#1071e5" d="M25-224v-37h50v37H25zM25 0v-190h50V0H25" id="at"/><g id="k"><use transform="matrix(0.07407407407407408,0,0,0.07407407407407408,0,0)" xlink:href="#am"/><use transform="matrix(0.07407407407407408,0,0,0.07407407407407408,17.77777777777778,0)" xlink:href="#an"/><use transform="matrix(0.07407407407407408,0,0,0.07407407407407408,34,0)" xlink:href="#ao"/><use transform="matrix(0.07407407407407408,0,0,0.07407407407407408,48.81481481481481,0)" xlink:href="#ap"/><use transform="matrix(0.07407407407407408,0,0,0.07407407407407408,63.629629629629626,0)" xlink:href="#aq"/><use transform="matrix(0.07407407407407408,0,0,0.07407407407407408,78.44444444444446,0)" xlink:href="#ar"/><use transform="matrix(0.07407407407407408,0,0,0.07407407407407408,87.25925925925927,0)" xlink:href="#as"/><use transform="matrix(0.07407407407407408,0,0,0.07407407407407408,94.66666666666669,0)" xlink:href="#at"/><use transform="matrix(0.07407407407407408,0,0,0.07407407407407408,102.07407407407408,0)" xlink:href="#an"/></g><path fill="#54c45e" d="M186 0v-106H76V0H24v-248h52v99h110v-99h50V0h-50" id="au"/><path fill="#54c45e" d="M136-208V0H84v-208H4v-40h212v40h-80" id="av"/><path fill="#54c45e" d="M230 0l2-204L168 0h-37L68-204 70 0H24v-248h70l56 185 57-185h69V0h-46" id="aw"/><path fill="#54c45e" d="M24 0v-248h52v208h133V0H24" id="ax"/><path fill="#54c45e" d="M125-100v72H85v-72H15v-39h70v-72h40v72h71v39h-71" id="ay"/><path fill="#54c45e" d="M176-78C186 10 51 31 16-35c-5-9-9-19-11-32l52-8c4 21 12 37 35 38 23 0 32-16 32-40v-130H75v-41h101v170" id="az"/><path fill="#54c45e" d="M169-182c-1-43-94-46-97-3 18 66 151 10 154 114 3 95-165 93-204 36-6-8-10-19-12-30l50-8c3 46 112 56 116 5-17-69-150-10-154-114-4-87 153-88 188-35 5 8 8 18 10 28" id="aA"/><g id="l"><use transform="matrix(0.08641975308641976,0,0,0.08641975308641976,0,0)" xlink:href="#au"/><use transform="matrix(0.08641975308641976,0,0,0.08641975308641976,22.38271604938272,0)" xlink:href="#av"/><use transform="matrix(0.08641975308641976,0,0,0.08641975308641976,41.308641975308646,0)" xlink:href="#aw"/><use transform="matrix(0.08641975308641976,0,0,0.08641975308641976,67.14814814814815,0)" xlink:href="#ax"/><use transform="matrix(0.08641975308641976,0,0,0.08641975308641976,86.07407407407408,0)" xlink:href="#ay"/><use transform="matrix(0.08641975308641976,0,0,0.08641975308641976,104.22222222222223,0)" xlink:href="#az"/><use transform="matrix(0.08641975308641976,0,0,0.08641975308641976,121.50617283950619,0)" xlink:href="#aA"/></g><path fill="#fcce14" d="M238-95c0 69-44 99-111 99C63 4 22-25 22-93v-155h51v151c-1 38 19 59 55 60 90 1 49-130 58-211h52v153" id="aB"/><path fill="#fcce14" d="M24-248c120-7 223 5 221 122C244-46 201 0 124 0H24v-248zM76-40c74 7 117-18 117-86 0-67-45-88-117-82v168" id="aC"/><path fill="#fcce14" d="M24-248c93 1 206-16 204 79-1 75-69 88-152 82V0H24v-248zm52 121c47 0 100 7 100-41 0-47-54-39-100-39v80" id="aD"/><g id="m"><use transform="matrix(0.07407407407407408,0,0,0.07407407407407408,0,0)" xlink:href="#aB"/><use transform="matrix(0.07407407407407408,0,0,0.07407407407407408,19.185185185185187,0)" xlink:href="#aC"/><use transform="matrix(0.07407407407407408,0,0,0.07407407407407408,38.370370370370374,0)" xlink:href="#aD"/></g><path fill="#fcce14" d="M67-93c0 74 22 123 53 168H70C40 30 18-18 18-93s22-123 52-168h50c-32 44-53 94-53 168" id="aE"/><path fill="#fcce14" d="M76-208v77h127v40H76V0H24v-248h183v40H76" id="aF"/><path fill="#fcce14" d="M133-34C117-15 103 5 69 4 32 3 11-16 11-54c-1-60 55-63 116-61 1-26-3-47-28-47-18 1-26 9-28 27l-52-2c7-38 36-58 82-57s74 22 75 68l1 82c-1 14 12 18 25 15v27c-30 8-71 5-69-32zm-48 3c29 0 43-24 42-57-32 0-66-3-65 30 0 17 8 27 23 27" id="aG"/><path fill="#fcce14" d="M25 0v-261h50V0H25" id="aH"/><path fill="#fcce14" d="M135-194c52 0 70 43 70 98 0 56-19 99-73 100-30 1-46-15-58-35L72 0H24l1-261h50v104c11-23 29-37 60-37zM114-30c31 0 40-27 40-66 0-37-7-63-39-63s-41 28-41 65c0 36 8 64 40 64" id="aI"/><path fill="#fcce14" d="M190-63c-7 42-38 67-86 67-59 0-84-38-90-98-12-110 154-137 174-36l-49 2c-2-19-15-32-35-32-30 0-35 28-38 64-6 74 65 87 74 30" id="aJ"/><path fill="#fcce14" d="M147 0L96-86 75-71V0H25v-261h50v150l67-79h53l-66 74L201 0h-54" id="aK"/><path fill="#fcce14" d="M102-93c0 74-22 123-52 168H0C30 29 54-18 53-93c0-74-22-123-53-168h50c30 45 52 94 52 168" id="aL"/><g id="n"><use transform="matrix(0.07407407407407408,0,0,0.07407407407407408,0,0)" xlink:href="#aE"/><use transform="matrix(0.07407407407407408,0,0,0.07407407407407408,8.814814814814817,0)" xlink:href="#aF"/><use transform="matrix(0.07407407407407408,0,0,0.07407407407407408,25.03703703703704,0)" xlink:href="#aG"/><use transform="matrix(0.07407407407407408,0,0,0.07407407407407408,39.85185185185187,0)" xlink:href="#aH"/><use transform="matrix(0.07407407407407408,0,0,0.07407407407407408,47.25925925925927,0)" xlink:href="#aH"/><use transform="matrix(0.07407407407407408,0,0,0.07407407407407408,54.66666666666667,0)" xlink:href="#aI"/><use transform="matrix(0.07407407407407408,0,0,0.07407407407407408,70.8888888888889,0)" xlink:href="#aG"/><use transform="matrix(0.07407407407407408,0,0,0.07407407407407408,85.70370370370374,0)" xlink:href="#aJ"/><use transform="matrix(0.07407407407407408,0,0,0.07407407407407408,100.51851851851853,0)" xlink:href="#aK"/><use transform="matrix(0.07407407407407408,0,0,0.07407407407407408,115.33333333333334,0)" xlink:href="#aL"/></g><path fill="#d916a8" d="M238-95c0 69-44 99-111 99C63 4 22-25 22-93v-155h51v151c-1 38 19 59 55 60 90 1 49-130 58-211h52v153" id="aM"/><path fill="#d916a8" d="M24-248c120-7 223 5 221 122C244-46 201 0 124 0H24v-248zM76-40c74 7 117-18 117-86 0-67-45-88-117-82v168" id="aN"/><path fill="#d916a8" d="M24-248c93 1 206-16 204 79-1 75-69 88-152 82V0H24v-248zm52 121c47 0 100 7 100-41 0-47-54-39-100-39v80" id="aO"/><g id="o"><use transform="matrix(0.07407407407407408,0,0,0.07407407407407408,0,0)" xlink:href="#aM"/><use transform="matrix(0.07407407407407408,0,0,0.07407407407407408,19.185185185185187,0)" xlink:href="#aN"/><use transform="matrix(0.07407407407407408,0,0,0.07407407407407408,38.370370370370374,0)" xlink:href="#aO"/></g><path fill="#d916a8" d="M67-93c0 74 22 123 53 168H70C40 30 18-18 18-93s22-123 52-168h50c-32 44-53 94-53 168" id="aP"/><path fill="#d916a8" d="M182-182c0 78-84 86-111 141h115V0H12c-6-101 99-100 120-180 1-22-12-31-33-32-23 0-32 14-35 34l-49-3c5-45 32-70 84-70 51 0 83 22 83 69" id="aQ"/><path fill="#d916a8" d="M102-93c0 74-22 123-52 168H0C30 29 54-18 53-93c0-74-22-123-53-168h50c30 45 52 94 52 168" id="aR"/><g id="p"><use transform="matrix(0.07407407407407408,0,0,0.07407407407407408,0,0)" xlink:href="#aP"/><use transform="matrix(0.07407407407407408,0,0,0.07407407407407408,8.814814814814817,0)" xlink:href="#aO"/><use transform="matrix(0.07407407407407408,0,0,0.07407407407407408,26.592592592592595,0)" xlink:href="#aQ"/><use transform="matrix(0.07407407407407408,0,0,0.07407407407407408,41.40740740740741,0)" xlink:href="#aO"/><use transform="matrix(0.07407407407407408,0,0,0.07407407407407408,59.18518518518519,0)" xlink:href="#aR"/></g><path fill="#fff" d="M233-177c-1 41-23 64-60 70L243 0h-38l-65-103H63V0H30v-248c88 3 205-21 203 71zM63-129c60-2 137 13 137-47 0-61-80-42-137-45v92" id="aS"/><path fill="#fff" d="M140-251c81 0 123 46 123 126C263-46 219 4 140 4 59 4 17-45 17-125s42-126 123-126zm0 227c63 0 89-41 89-101s-29-99-89-99c-61 0-89 39-89 99S79-25 140-24" id="aT"/><path fill="#fff" d="M185-189c-5-48-123-54-124 2 14 75 158 14 163 119 3 78-121 87-175 55-17-10-28-26-33-46l33-7c5 56 141 63 141-1 0-78-155-14-162-118-5-82 145-84 179-34 5 7 8 16 11 25" id="aU"/><g id="q"><use transform="matrix(0.06172839506172839,0,0,0.06172839506172839,0,0)" xlink:href="#aS"/><use transform="matrix(0.06172839506172839,0,0,0.06172839506172839,15.987654320987653,0)" xlink:href="#aT"/><use transform="matrix(0.06172839506172839,0,0,0.06172839506172839,33.2716049382716,0)" xlink:href="#aU"/></g><path fill="#fff" d="M190 0L58-211 59 0H30v-248h39L202-35l-2-213h31V0h-41" id="aV"/><path fill="#fff" d="M100-194c63 0 86 42 84 106H49c0 40 14 67 53 68 26 1 43-12 49-29l28 8c-11 28-37 45-77 45C44 4 14-33 15-96c1-61 26-98 85-98zm52 81c6-60-76-77-97-28-3 7-6 17-6 28h103" id="aW"/><path fill="#fff" d="M59-47c-2 24 18 29 38 22v24C64 9 27 4 27-40v-127H5v-23h24l9-43h21v43h35v23H59v120" id="aX"/><path fill="#fff" d="M206 0h-36l-40-164L89 0H53L-1-190h32L70-26l43-164h34l41 164 42-164h31" id="aY"/><path fill="#fff" d="M100-194c62-1 85 37 85 99 1 63-27 99-86 99S16-35 15-95c0-66 28-99 85-99zM99-20c44 1 53-31 53-75 0-43-8-75-51-75s-53 32-53 75 10 74 51 75" id="aZ"/><path fill="#fff" d="M114-163C36-179 61-72 57 0H25l-1-190h30c1 12-1 29 2 39 6-27 23-49 58-41v29" id="ba"/><path fill="#fff" d="M143 0L79-87 56-68V0H24v-261h32v163l83-92h37l-77 82L181 0h-38" id="bb"/><g id="r"><use transform="matrix(0.06172839506172839,0,0,0.06172839506172839,0,0)" xlink:href="#aV"/><use transform="matrix(0.06172839506172839,0,0,0.06172839506172839,15.987654320987653,0)" xlink:href="#aW"/><use transform="matrix(0.06172839506172839,0,0,0.06172839506172839,28.333333333333332,0)" xlink:href="#aX"/><use transform="matrix(0.06172839506172839,0,0,0.06172839506172839,34.50617283950617,0)" xlink:href="#aY"/><use transform="matrix(0.06172839506172839,0,0,0.06172839506172839,50.49382716049382,0)" xlink:href="#aZ"/><use transform="matrix(0.06172839506172839,0,0,0.06172839506172839,62.8395061728395,0)" xlink:href="#ba"/><use transform="matrix(0.06172839506172839,0,0,0.06172839506172839,70.18518518518518,0)" xlink:href="#bb"/></g><path fill="#fff" d="M197 0v-115H63V0H30v-248h33v105h134v-105h34V0h-34" id="bc"/><path fill="#fff" d="M141-36C126-15 110 5 73 4 37 3 15-17 15-53c-1-64 63-63 125-63 3-35-9-54-41-54-24 1-41 7-42 31l-33-3c5-37 33-52 76-52 45 0 72 20 72 64v82c-1 20 7 32 28 27v20c-31 9-61-2-59-35zM48-53c0 20 12 33 32 33 41-3 63-29 60-74-43 2-92-5-92 41" id="bd"/><path fill="#fff" d="M85-194c31 0 48 13 60 33l-1-100h32l1 261h-30c-2-10 0-23-3-31C134-8 116 4 85 4 32 4 16-35 15-94c0-66 23-100 70-100zm9 24c-40 0-46 34-46 75 0 40 6 74 45 74 42 0 51-32 51-76 0-42-9-74-50-73" id="be"/><g id="s"><use transform="matrix(0.06172839506172839,0,0,0.06172839506172839,0,0)" xlink:href="#bc"/><use transform="matrix(0.06172839506172839,0,0,0.06172839506172839,15.987654320987653,0)" xlink:href="#bd"/><use transform="matrix(0.06172839506172839,0,0,0.06172839506172839,28.333333333333332,0)" xlink:href="#ba"/><use transform="matrix(0.06172839506172839,0,0,0.06172839506172839,35.67901234567901,0)" xlink:href="#be"/><use transform="matrix(0.06172839506172839,0,0,0.06172839506172839,48.02469135802469,0)" xlink:href="#aY"/><use transform="matrix(0.06172839506172839,0,0,0.06172839506172839,64.01234567901234,0)" xlink:href="#bd"/><use transform="matrix(0.06172839506172839,0,0,0.06172839506172839,76.35802469135803,0)" xlink:href="#ba"/><use transform="matrix(0.06172839506172839,0,0,0.06172839506172839,83.70370370370371,0)" xlink:href="#aW"/></g><path d="M233-177c-1 41-23 64-60 70L243 0h-38l-65-103H63V0H30v-248c88 3 205-21 203 71zM63-129c60-2 137 13 137-47 0-61-80-42-137-45v92" id="bf"/><path d="M210-169c-67 3-38 105-44 169h-31v-121c0-29-5-50-35-48C34-165 62-65 56 0H25l-1-190h30c1 10-1 24 2 32 10-44 99-50 107 0 11-21 27-35 58-36 85-2 47 119 55 194h-31v-121c0-29-5-49-35-48" id="bg"/><path d="M59-47c-2 24 18 29 38 22v24C64 9 27 4 27-40v-127H5v-23h24l9-43h21v43h35v23H59v120" id="bh"/><g id="t"><use transform="matrix(0.09320987654320982,0,0,0.09320987654320982,0,0)" xlink:href="#bf"/><use transform="matrix(0.09320987654320982,0,0,0.09320987654320982,24.141358024691343,0)" xlink:href="#R"/><use transform="matrix(0.09320987654320982,0,0,0.09320987654320982,42.7833333333333,0)" xlink:href="#bg"/><use transform="matrix(0.09320987654320982,0,0,0.09320987654320982,70.65308641975304,0)" xlink:href="#M"/><use transform="matrix(0.09320987654320982,0,0,0.09320987654320982,89.295061728395,0)" xlink:href="#bh"/><use transform="matrix(0.09320987654320982,0,0,0.09320987654320982,98.61604938271599,0)" xlink:href="#R"/></g><g id="u"><use transform="matrix(0.07407407407407408,0,0,0.07407407407407408,0,0)" xlink:href="#af"/><use transform="matrix(0.07407407407407408,0,0,0.07407407407407408,17.77777777777778,0)" xlink:href="#Y"/><use transform="matrix(0.07407407407407408,0,0,0.07407407407407408,26.592592592592595,0)" xlink:href="#ad"/><use transform="matrix(0.07407407407407408,0,0,0.07407407407407408,32.44444444444445,0)" xlink:href="#ag"/><use transform="matrix(0.07407407407407408,0,0,0.07407407407407408,47.25925925925927,0)" xlink:href="#ah"/><use transform="matrix(0.07407407407407408,0,0,0.07407407407407408,62.07407407407408,0)" xlink:href="#X"/></g><path fill="#3a414a" d="M24 0v-261h32V0H24" id="bi"/><g id="v"><use transform="matrix(0.07407407407407408,0,0,0.07407407407407408,0,0)" xlink:href="#Z"/><use transform="matrix(0.07407407407407408,0,0,0.07407407407407408,19.185185185185187,0)" xlink:href="#bi"/><use transform="matrix(0.07407407407407408,0,0,0.07407407407407408,25.037037037037035,0)" xlink:href="#ad"/><use transform="matrix(0.07407407407407408,0,0,0.07407407407407408,30.888888888888893,0)" xlink:href="#X"/><use transform="matrix(0.07407407407407408,0,0,0.07407407407407408,45.70370370370371,0)" xlink:href="#aa"/><use transform="matrix(0.07407407407407408,0,0,0.07407407407407408,60.518518518518526,0)" xlink:href="#ab"/></g><g id="w"><use transform="matrix(0.07407407407407408,0,0,0.07407407407407408,0,0)" xlink:href="#af"/><use transform="matrix(0.07407407407407408,0,0,0.07407407407407408,17.77777777777778,0)" xlink:href="#Y"/><use transform="matrix(0.07407407407407408,0,0,0.07407407407407408,26.592592592592595,0)" xlink:href="#ad"/><use transform="matrix(0.07407407407407408,0,0,0.07407407407407408,32.44444444444445,0)" xlink:href="#ag"/><use transform="matrix(0.07407407407407408,0,0,0.07407407407407408,47.25925925925927,0)" xlink:href="#ah"/><use transform="matrix(0.07407407407407408,0,0,0.07407407407407408,62.07407407407408,0)" xlink:href="#X"/></g><path fill="#3a414a" d="M205 0l-28-72H64L36 0H1l101-248h38L239 0h-34zm-38-99l-47-123c-12 45-31 82-46 123h93" id="bj"/><g id="x"><use transform="matrix(0.07407407407407408,0,0,0.07407407407407408,0,0)" xlink:href="#bj"/><use transform="matrix(0.07407407407407408,0,0,0.07407407407407408,17.77777777777778,0)" xlink:href="#ah"/><use transform="matrix(0.07407407407407408,0,0,0.07407407407407408,32.592592592592595,0)" xlink:href="#X"/><use transform="matrix(0.07407407407407408,0,0,0.07407407407407408,47.40740740740741,0)" xlink:href="#aa"/><use transform="matrix(0.07407407407407408,0,0,0.07407407407407408,62.22222222222223,0)" xlink:href="#ab"/></g><path fill="#3a414a" d="M127-220V0H93v-220H8v-28h204v28h-85" id="bk"/><path fill="#3a414a" d="M233-177c-1 41-23 64-60 70L243 0h-38l-65-103H63V0H30v-248c88 3 205-21 203 71zM63-129c60-2 137 13 137-47 0-61-80-42-137-45v92" id="bl"/><path fill="#3a414a" d="M190 0L58-211 59 0H30v-248h39L202-35l-2-213h31V0h-41" id="bm"/><g id="y"><use transform="matrix(0.07407407407407408,0,0,0.07407407407407408,0,0)" xlink:href="#bk"/><use transform="matrix(0.07407407407407408,0,0,0.07407407407407408,16.222222222222225,0)" xlink:href="#ai"/><use transform="matrix(0.07407407407407408,0,0,0.07407407407407408,35.40740740740741,0)" xlink:href="#bl"/><use transform="matrix(0.07407407407407408,0,0,0.07407407407407408,54.59259259259259,0)" xlink:href="#bm"/></g><path fill="#3a414a" d="M0 4l72-265h28L28 4H0" id="bn"/><use transform="matrix(0.07407407407407408,0,0,0.07407407407407408,0,0)" xlink:href="#bn" id="z"/><g id="A"><use transform="matrix(0.07407407407407408,0,0,0.07407407407407408,0,0)" xlink:href="#ak"/><use transform="matrix(0.07407407407407408,0,0,0.07407407407407408,17.77777777777778,0)" xlink:href="#bk"/><use transform="matrix(0.07407407407407408,0,0,0.07407407407407408,34,0)" xlink:href="#ai"/><use transform="matrix(0.07407407407407408,0,0,0.07407407407407408,53.18518518518519,0)" xlink:href="#bm"/></g><path d="M140-251c81 0 123 46 123 126C263-46 219 4 140 4 59 4 17-45 17-125s42-126 123-126zm0 227c63 0 89-41 89-101s-29-99-89-99c-61 0-89 39-89 99S79-25 140-24" id="bo"/><path d="M185-189c-5-48-123-54-124 2 14 75 158 14 163 119 3 78-121 87-175 55-17-10-28-26-33-46l33-7c5 56 141 63 141-1 0-78-155-14-162-118-5-82 145-84 179-34 5 7 8 16 11 25" id="bp"/><path d="M101-251c82-7 93 87 43 132L82-64C71-53 59-42 53-27h129V0H18c2-99 128-94 128-182 0-28-16-43-45-43s-46 15-49 41l-32-3c6-41 34-60 81-64" id="bq"/><g id="B"><use transform="matrix(0.0925925925925926,0,0,0.0925925925925926,0,0)" xlink:href="#bf"/><use transform="matrix(0.0925925925925926,0,0,0.0925925925925926,23.981481481481485,0)" xlink:href="#bo"/><use transform="matrix(0.0925925925925926,0,0,0.0925925925925926,49.90740740740741,0)" xlink:href="#bp"/><use transform="matrix(0.0925925925925926,0,0,0.0925925925925926,72.12962962962963,0)" xlink:href="#bq"/></g><path d="M240 0l2-218c-23 76-54 145-80 218h-23L58-218 59 0H30v-248h44l77 211c21-75 51-140 76-211h43V0h-30" id="br"/><path d="M106-169C34-169 62-67 57 0H25v-261h32l-1 103c12-21 28-36 61-36 89 0 53 116 60 194h-32v-121c2-32-8-49-39-48" id="bs"/><path d="M24-231v-30h32v30H24zM24 0v-190h32V0H24" id="bt"/><path d="M117-194c89-4 53 116 60 194h-32v-121c0-31-8-49-39-48C34-167 62-67 57 0H25l-1-190h30c1 10-1 24 2 32 11-22 29-35 61-36" id="bu"/><g id="C"><use transform="matrix(0.0925925925925926,0,0,0.0925925925925926,0,0)" xlink:href="#br"/><use transform="matrix(0.0925925925925926,0,0,0.0925925925925926,27.685185185185187,0)" xlink:href="#O"/><use transform="matrix(0.0925925925925926,0,0,0.0925925925925926,46.20370370370371,0)" xlink:href="#N"/><use transform="matrix(0.0925925925925926,0,0,0.0925925925925926,62.870370370370374,0)" xlink:href="#bs"/><use transform="matrix(0.0925925925925926,0,0,0.0925925925925926,81.3888888888889,0)" xlink:href="#bt"/><use transform="matrix(0.0925925925925926,0,0,0.0925925925925926,88.70370370370371,0)" xlink:href="#bu"/><use transform="matrix(0.0925925925925926,0,0,0.0925925925925926,107.22222222222223,0)" xlink:href="#R"/></g></defs></g></svg>